<svg xmlns="http://www.w3.org/2000/svg" xmlns:xlink="http://www.w3.org/1999/xlink" width="2000" zoomAndPan="magnify" viewBox="0 0 1500 449.999984" height="600" preserveAspectRatio="xMidYMid meet" version="1.0"><defs><g/><clipPath id="afa886f11e"><path d="M 0 122.078125 L 283.65625 122.078125 L 283.65625 393.789062 L 0 393.789062 Z M 0 122.078125 " clip-rule="nonzero"/></clipPath><clipPath id="f527efe9a0"><path d="M 211.824219 0.660156 L 408.292969 0.660156 L 408.292969 393.601562 L 211.824219 393.601562 Z M 211.824219 0.660156 " clip-rule="nonzero"/></clipPath><clipPath id="f017eead06"><path d="M 0.84375 0.660156 L 197.292969 0.660156 L 197.292969 393.601562 L 0.84375 393.601562 Z M 0.84375 0.660156 " clip-rule="nonzero"/></clipPath><clipPath id="7d340212b4"><path d="M 0.84375 78 L 119 78 L 119 316 L 0.84375 316 Z M 0.84375 78 " clip-rule="nonzero"/></clipPath><clipPath id="476366bd22"><rect x="0" width="198" y="0" height="394"/></clipPath><clipPath id="07692b6d79"><rect x="0" width="409" y="0" height="400"/></clipPath><clipPath id="1774a4aa05"><rect x="0" width="1071" y="0" height="408"/></clipPath></defs><g transform="matrix(1, 0, 0, 1, 0, 21)"><g clip-path="url(#07692b6d79)"><g clip-path="url(#afa886f11e)"><path fill="#f2c858" d="M 139.777344 181.101562 L 183.132812 181.101562 C 186.394531 181.101562 189.039062 178.457031 189.039062 175.199219 L 189.039062 127.96875 C 189.039062 126.046875 188.105469 124.261719 186.546875 123.152344 C 184.976562 122.054688 182.980469 121.757812 181.164062 122.410156 C 159.613281 130.035156 142.046875 149.09375 134.160156 173.378906 C 133.578125 175.175781 133.886719 177.144531 134.996094 178.667969 C 136.117188 180.191406 137.878906 181.101562 139.777344 181.101562 Z M 245.121094 128.761719 C 243.304688 127.699219 241.035156 127.710938 239.21875 128.761719 C 237.398438 129.8125 236.265625 131.757812 236.265625 133.875 L 236.265625 175.199219 C 236.265625 184.960938 228.320312 192.910156 218.554688 192.910156 L 135.90625 192.910156 C 132.648438 192.910156 130.003906 195.554688 130.003906 198.8125 C 130.003906 205.152344 130.792969 211.46875 132.351562 217.632812 L 9.191406 340.804688 C 3.347656 346.648438 0.125 354.417969 0.125 362.695312 C 0.125 379.757812 13.996094 393.640625 31.058594 393.640625 C 39.324219 393.640625 47.09375 390.429688 52.949219 384.574219 L 146.402344 291.121094 C 156.4375 281.085938 169.78125 275.558594 183.972656 275.558594 L 206.75 275.558594 C 249.066406 275.558594 283.496094 241.128906 283.496094 198.8125 C 283.496094 170.214844 268.085938 142.054688 245.121094 128.761719 Z M 35.546875 370.015625 C 29.039062 370.015625 23.738281 364.714844 23.738281 358.207031 C 23.738281 351.703125 29.039062 346.402344 35.546875 346.402344 C 42.050781 346.402344 47.351562 351.703125 47.351562 358.207031 C 47.351562 364.714844 42.0625 370.015625 35.546875 370.015625 Z M 188.425781 225.070312 L 176.617188 248.683594 C 175.578125 250.75 173.5 251.945312 171.328125 251.945312 C 170.441406 251.945312 169.542969 251.742188 168.695312 251.320312 C 165.777344 249.855469 164.597656 246.3125 166.050781 243.394531 L 177.855469 219.78125 C 179.320312 216.867188 182.863281 215.683594 185.777344 217.136719 C 188.695312 218.601562 189.875 222.15625 188.425781 225.070312 Z M 212.039062 225.070312 L 200.230469 248.683594 C 199.191406 250.75 197.113281 251.945312 194.941406 251.945312 C 194.054688 251.945312 193.160156 251.742188 192.308594 251.320312 C 189.390625 249.855469 188.210938 246.3125 189.664062 243.394531 L 201.472656 219.78125 C 202.933594 216.867188 206.476562 215.683594 209.394531 217.136719 C 212.308594 218.601562 213.492188 222.15625 212.039062 225.070312 Z M 235.652344 225.070312 L 223.84375 248.683594 C 222.804688 250.75 220.726562 251.945312 218.554688 251.945312 C 217.671875 251.945312 216.773438 251.742188 215.921875 251.320312 C 213.007812 249.855469 211.824219 246.3125 213.277344 243.394531 L 225.085938 219.78125 C 226.550781 216.867188 230.089844 215.683594 233.007812 217.136719 C 235.925781 218.601562 237.105469 222.15625 235.652344 225.070312 Z M 235.652344 225.070312 " fill-opacity="1" fill-rule="nonzero"/></g><g clip-path="url(#f527efe9a0)"><g transform="matrix(1, 0, 0, 1, 211, -0.000000000000003553)"><g clip-path="url(#476366bd22)"><g clip-path="url(#f017eead06)"><path fill="#03466e" d="M 26.234375 32.730469 L 55.179688 0.664062 C 71.449219 5.136719 86.882812 11.628906 101.277344 19.789062 L 99.09375 62.921875 C 98.054688 83.191406 114.789062 99.921875 135.054688 98.882812 L 178.1875 96.699219 C 186.347656 111.042969 192.789062 126.53125 197.3125 142.796875 L 165.25 171.742188 C 150.175781 185.355469 150.175781 209.003906 165.25 222.566406 L 197.3125 251.511719 C 192.84375 267.777344 186.347656 283.210938 178.1875 297.605469 L 135.054688 295.421875 C 114.789062 294.382812 98.054688 311.117188 99.09375 331.386719 L 101.277344 374.519531 C 86.933594 382.675781 71.449219 389.121094 55.179688 393.640625 L 26.234375 361.578125 C 19.429688 354.042969 10.125 350.300781 0.824219 350.300781 L 0.824219 319.898438 C 68.589844 319.898438 123.519531 264.972656 123.519531 197.207031 C 123.519531 129.441406 68.589844 74.511719 0.824219 74.511719 L 0.824219 44.109375 C 10.125 44.007812 19.429688 40.265625 26.234375 32.730469 Z M 26.234375 32.730469 " fill-opacity="1" fill-rule="nonzero"/></g><g clip-path="url(#7d340212b4)"><path fill="#03466e" d="M 118.945312 197.101562 C 118.945312 262.320312 66.042969 315.222656 0.824219 315.222656 L 0.824219 298.90625 C 57.050781 298.90625 102.628906 253.332031 102.628906 197.101562 C 102.628906 140.875 57.050781 95.296875 0.824219 95.296875 L 0.824219 78.980469 C 66.042969 78.980469 118.945312 131.882812 118.945312 197.101562 Z M 118.945312 197.101562 " fill-opacity="1" fill-rule="nonzero"/></g></g></g></g></g></g><g transform="matrix(1, 0, 0, 1, 423, 39)"><g clip-path="url(#1774a4aa05)"><g fill="#841711" fill-opacity="1"><g transform="translate(9.56721, 158.757994)"><g><path d="M 71.792969 -155.074219 C 80.503906 -155.074219 88.472656 -152.917969 95.699219 -148.597656 C 102.753906 -144.386719 108.386719 -138.75 112.601562 -131.699219 C 116.917969 -124.46875 119.078125 -116.5 119.078125 -107.789062 L 119.078125 12.710938 L 59.082031 12.710938 L 59.082031 -51.859375 L 71.792969 -51.859375 L 71.792969 -39.148438 L 41.691406 -39.148438 L 41.691406 -51.859375 L 54.402344 -51.859375 L 54.402344 12.710938 L -5.59375 12.710938 L -5.59375 -155.074219 Z M 71.792969 -129.652344 L 7.117188 -129.652344 L 7.117188 -142.363281 L 19.828125 -142.363281 L 19.828125 0 L 7.117188 0 L 7.117188 -12.710938 L 41.691406 -12.710938 L 41.691406 0 L 28.980469 0 L 28.980469 -64.574219 L 84.503906 -64.574219 L 84.503906 0 L 71.792969 0 L 71.792969 -12.710938 L 106.367188 -12.710938 L 106.367188 0 L 93.65625 0 L 93.65625 -107.789062 C 93.65625 -111.824219 92.695312 -115.449219 90.777344 -118.660156 C 88.753906 -122.046875 86.046875 -124.75 82.664062 -126.773438 C 79.449219 -128.695312 75.828125 -129.652344 71.792969 -129.652344 Z M 41.691406 -98.941406 L 71.792969 -98.941406 L 71.792969 -86.230469 L 59.082031 -86.230469 L 59.082031 -107.789062 L 71.792969 -107.789062 L 71.792969 -95.078125 L 41.691406 -95.078125 L 41.691406 -107.789062 L 54.402344 -107.789062 L 54.402344 -86.230469 L 41.691406 -86.230469 Z M 28.980469 -73.519531 L 28.980469 -120.5 L 84.503906 -120.5 L 84.503906 -73.519531 Z M 28.980469 -73.519531 "/></g></g></g><g fill="#841711" fill-opacity="1"><g transform="translate(126.91605, 158.757994)"><g><path d="M 40.878906 -47.285156 L 105.042969 -47.285156 L 105.042969 12.710938 L -6.40625 12.710938 L -6.40625 -107.789062 C -6.40625 -116.5 -4.246094 -124.46875 0.0703125 -131.699219 C 4.285156 -138.75 9.917969 -144.386719 16.972656 -148.597656 C 24.199219 -152.917969 32.167969 -155.074219 40.878906 -155.074219 L 53.589844 -155.074219 L 53.589844 -34.574219 L 40.878906 -34.574219 Z M 28.167969 -21.863281 L 28.167969 -142.363281 L 40.878906 -142.363281 L 40.878906 -129.652344 C 36.84375 -129.652344 33.222656 -128.695312 30.007812 -126.773438 C 26.621094 -124.75 23.917969 -122.046875 21.894531 -118.660156 C 19.976562 -115.449219 19.015625 -111.824219 19.015625 -107.789062 L 19.015625 0 L 6.304688 0 L 6.304688 -12.710938 L 92.332031 -12.710938 L 92.332031 0 L 79.621094 0 L 79.621094 -34.574219 L 92.332031 -34.574219 L 92.332031 -21.863281 Z M 28.167969 -21.863281 "/></g></g></g><g fill="#841711" fill-opacity="1"><g transform="translate(223.520395, 158.757994)"><g><path d="M 85.417969 -95.078125 L 41.691406 -95.078125 L 41.691406 -107.789062 L 54.402344 -107.789062 L 54.402344 -86.230469 L 41.691406 -86.230469 L 41.691406 -98.941406 L 88.773438 -98.941406 L 88.773438 -39.148438 L 41.691406 -39.148438 L 41.691406 -51.859375 L 54.402344 -51.859375 L 54.402344 -34.574219 L 41.691406 -34.574219 L 41.691406 -47.285156 L 119.078125 -47.285156 L 119.078125 12.710938 L -5.59375 12.710938 L -5.59375 -155.074219 L 119.078125 -155.074219 L 119.078125 -128.738281 C 119.078125 -119.574219 115.828125 -111.6875 109.328125 -105.078125 C 102.769531 -98.414062 94.800781 -95.078125 85.417969 -95.078125 Z M 85.417969 -120.5 C 87.699219 -120.5 89.625 -121.304688 91.203125 -122.90625 C 92.839844 -124.570312 93.65625 -126.511719 93.65625 -128.738281 L 93.65625 -142.363281 L 106.367188 -142.363281 L 106.367188 -129.652344 L 7.117188 -129.652344 L 7.117188 -142.363281 L 19.828125 -142.363281 L 19.828125 0 L 7.117188 0 L 7.117188 -12.710938 L 106.367188 -12.710938 L 106.367188 0 L 93.65625 0 L 93.65625 -34.574219 L 106.367188 -34.574219 L 106.367188 -21.863281 L 28.980469 -21.863281 L 28.980469 -64.574219 L 76.0625 -64.574219 L 76.0625 -51.859375 L 63.351562 -51.859375 L 63.351562 -86.230469 L 76.0625 -86.230469 L 76.0625 -73.519531 L 28.980469 -73.519531 L 28.980469 -120.5 Z M 85.417969 -120.5 "/></g></g></g><g fill="#841711" fill-opacity="1"><g transform="translate(336.801695, 158.757994)"><g><path d="M 123.191406 -136.429688 L 83.941406 -65.246094 L 72.808594 -71.386719 L 83.941406 -77.523438 L 133.585938 12.507812 L 69.960938 12.507812 L 44.375 -34.160156 L 55.523438 -40.269531 L 66.667969 -34.160156 L 41.085938 12.507812 L -22.542969 12.507812 L 27.105469 -77.523438 L 38.234375 -71.386719 L 27.105469 -65.246094 L -22.542969 -155.277344 L 41.066406 -155.277344 L 66.65625 -108.839844 L 55.523438 -102.707031 L 44.390625 -108.84375 L 59.644531 -136.503906 C 62.988281 -142.355469 67.453125 -146.9375 73.039062 -150.25 C 78.699219 -153.601562 84.859375 -155.277344 91.519531 -155.277344 L 133.585938 -155.277344 Z M 100.929688 -148.707031 L 112.0625 -142.566406 L 112.0625 -129.855469 L 91.519531 -129.855469 C 89.503906 -129.855469 87.664062 -129.363281 86 -128.378906 C 84.265625 -127.351562 82.902344 -125.96875 81.90625 -124.226562 L 55.515625 -76.375 L 22.425781 -136.433594 L 33.558594 -142.566406 L 33.558594 -129.855469 L -1.015625 -129.855469 L -1.015625 -142.566406 L 10.113281 -148.707031 L 52.75 -71.386719 L 10.113281 5.933594 L -1.015625 -0.203125 L -1.015625 -12.914062 L 33.558594 -12.914062 L 33.558594 -0.203125 L 22.410156 -6.3125 L 55.523438 -66.710938 L 88.632812 -6.3125 L 77.488281 -0.203125 L 77.488281 -12.914062 L 112.0625 -12.914062 L 112.0625 -0.203125 L 100.929688 5.933594 L 58.292969 -71.386719 Z M 100.929688 -148.707031 "/></g></g></g><g fill="#841711" fill-opacity="1"><g transform="translate(452.729983, 158.757994)"><g/></g></g><g fill="#841711" fill-opacity="1"><g transform="translate(9.56721, 365.642163)"><g><path d="M 39.863281 -155.074219 L 117.246094 -155.074219 L 117.246094 -84.300781 L 57.25 -84.300781 L 57.25 -107.789062 L 69.960938 -107.789062 L 69.960938 -95.078125 L 39.863281 -95.078125 L 39.863281 -107.789062 L 52.574219 -107.789062 L 52.574219 -86.230469 L 39.863281 -86.230469 L 39.863281 -98.941406 L 117.246094 -98.941406 L 117.246094 -34.574219 C 117.246094 -25.863281 115.089844 -17.894531 110.769531 -10.667969 C 106.558594 -3.613281 100.921875 2.019531 93.871094 6.234375 C 86.640625 10.550781 78.671875 12.710938 69.960938 12.710938 L -7.421875 12.710938 L -7.421875 -55.828125 L 52.574219 -55.828125 L 52.574219 -34.574219 L 39.863281 -34.574219 L 39.863281 -47.285156 L 69.960938 -47.285156 L 69.960938 -34.574219 L 57.25 -34.574219 L 57.25 -51.859375 L 69.960938 -51.859375 L 69.960938 -39.148438 L 39.863281 -39.148438 C 31.195312 -39.148438 23.261719 -41.253906 16.058594 -45.464844 C 8.957031 -49.613281 3.289062 -55.234375 -0.945312 -62.324219 C -5.265625 -69.550781 -7.421875 -77.519531 -7.421875 -86.230469 L -7.421875 -107.789062 C -7.421875 -116.5 -5.265625 -124.46875 -0.945312 -131.699219 C 3.265625 -138.75 8.902344 -144.386719 15.953125 -148.597656 C 23.183594 -152.917969 31.152344 -155.074219 39.863281 -155.074219 Z M 39.863281 -129.652344 C 35.828125 -129.652344 32.203125 -128.695312 28.992188 -126.773438 C 25.605469 -124.75 22.902344 -122.046875 20.878906 -118.660156 C 18.957031 -115.449219 18 -111.824219 18 -107.789062 L 18 -86.230469 C 18 -82.199219 18.957031 -78.574219 20.878906 -75.363281 C 22.878906 -72.011719 25.546875 -69.363281 28.886719 -67.410156 C 32.125 -65.519531 35.785156 -64.574219 39.863281 -64.574219 L 82.671875 -64.574219 L 82.671875 -21.863281 L 27.152344 -21.863281 L 27.152344 -43.117188 L 39.863281 -43.117188 L 39.863281 -30.40625 L 5.289062 -30.40625 L 5.289062 -43.117188 L 18 -43.117188 L 18 0 L 5.289062 0 L 5.289062 -12.710938 L 69.960938 -12.710938 C 73.996094 -12.710938 77.621094 -13.671875 80.832031 -15.589844 C 84.21875 -17.613281 86.921875 -20.316406 88.945312 -23.703125 C 90.867188 -26.917969 91.824219 -30.539062 91.824219 -34.574219 L 91.824219 -86.230469 L 104.535156 -86.230469 L 104.535156 -73.519531 L 27.152344 -73.519531 L 27.152344 -120.5 L 82.671875 -120.5 L 82.671875 -97.011719 L 69.960938 -97.011719 L 69.960938 -109.722656 L 104.535156 -109.722656 L 104.535156 -97.011719 L 91.824219 -97.011719 L 91.824219 -142.363281 L 104.535156 -142.363281 L 104.535156 -129.652344 Z M 39.863281 -129.652344 "/></g></g></g><g fill="#841711" fill-opacity="1"><g transform="translate(124.882294, 365.642163)"><g><path d="M 70.164062 -155.074219 C 78.875 -155.074219 86.84375 -152.917969 94.074219 -148.597656 C 101.125 -144.386719 106.761719 -138.75 110.972656 -131.699219 C 115.292969 -124.46875 117.449219 -116.5 117.449219 -107.789062 L 117.449219 -34.574219 C 117.449219 -25.863281 115.292969 -17.894531 110.972656 -10.667969 C 106.761719 -3.613281 101.125 2.019531 94.074219 6.234375 C 86.84375 10.550781 78.875 12.710938 70.164062 12.710938 L 40.066406 12.710938 C 31.355469 12.710938 23.386719 10.550781 16.15625 6.234375 C 9.105469 2.019531 3.46875 -3.613281 -0.742188 -10.667969 C -5.0625 -17.894531 -7.21875 -25.863281 -7.21875 -34.574219 L -7.21875 -107.789062 C -7.21875 -116.5 -5.0625 -124.46875 -0.742188 -131.699219 C 3.46875 -138.75 9.105469 -144.386719 16.15625 -148.597656 C 23.386719 -152.917969 31.355469 -155.074219 40.066406 -155.074219 Z M 70.164062 -129.652344 L 40.066406 -129.652344 C 36.03125 -129.652344 32.40625 -128.695312 29.195312 -126.773438 C 25.808594 -124.75 23.105469 -122.046875 21.082031 -118.660156 C 19.160156 -115.449219 18.203125 -111.824219 18.203125 -107.789062 L 18.203125 -34.574219 C 18.203125 -30.539062 19.160156 -26.917969 21.082031 -23.703125 C 23.105469 -20.316406 25.808594 -17.613281 29.195312 -15.589844 C 32.40625 -13.671875 36.03125 -12.710938 40.066406 -12.710938 L 70.164062 -12.710938 C 74.199219 -12.710938 77.824219 -13.671875 81.035156 -15.589844 C 84.421875 -17.613281 87.125 -20.316406 89.148438 -23.703125 C 91.070312 -26.917969 92.027344 -30.539062 92.027344 -34.574219 L 92.027344 -107.789062 C 92.027344 -111.824219 91.070312 -115.449219 89.148438 -118.660156 C 87.125 -122.046875 84.421875 -124.75 81.035156 -126.773438 C 77.824219 -128.695312 74.199219 -129.652344 70.164062 -129.652344 Z M 40.066406 -47.285156 L 70.164062 -47.285156 L 70.164062 -34.574219 L 57.453125 -34.574219 L 57.453125 -107.789062 L 70.164062 -107.789062 L 70.164062 -95.078125 L 40.066406 -95.078125 L 40.066406 -107.789062 L 52.777344 -107.789062 L 52.777344 -34.574219 L 40.066406 -34.574219 Z M 27.355469 -21.863281 L 27.355469 -120.5 L 82.875 -120.5 L 82.875 -21.863281 Z M 27.355469 -21.863281 "/></g></g></g><g fill="#841711" fill-opacity="1"><g transform="translate(239.790606, 365.642163)"><g><path d="M 40.878906 -47.285156 L 105.042969 -47.285156 L 105.042969 12.710938 L -6.40625 12.710938 L -6.40625 -107.789062 C -6.40625 -116.5 -4.246094 -124.46875 0.0703125 -131.699219 C 4.285156 -138.75 9.917969 -144.386719 16.972656 -148.597656 C 24.199219 -152.917969 32.167969 -155.074219 40.878906 -155.074219 L 53.589844 -155.074219 L 53.589844 -34.574219 L 40.878906 -34.574219 Z M 28.167969 -21.863281 L 28.167969 -142.363281 L 40.878906 -142.363281 L 40.878906 -129.652344 C 36.84375 -129.652344 33.222656 -128.695312 30.007812 -126.773438 C 26.621094 -124.75 23.917969 -122.046875 21.894531 -118.660156 C 19.976562 -115.449219 19.015625 -111.824219 19.015625 -107.789062 L 19.015625 0 L 6.304688 0 L 6.304688 -12.710938 L 92.332031 -12.710938 L 92.332031 0 L 79.621094 0 L 79.621094 -34.574219 L 92.332031 -34.574219 L 92.332031 -21.863281 Z M 28.167969 -21.863281 "/></g></g></g><g fill="#841711" fill-opacity="1"><g transform="translate(336.394951, 365.642163)"><g><path d="M 70.980469 -155.074219 L 118.265625 -155.074219 L 118.265625 -34.574219 C 118.265625 -25.863281 116.105469 -17.894531 111.789062 -10.667969 C 107.574219 -3.613281 101.941406 2.019531 94.886719 6.234375 C 87.660156 10.550781 79.691406 12.710938 70.980469 12.710938 L 40.878906 12.710938 C 32.167969 12.710938 24.199219 10.550781 16.972656 6.234375 C 9.917969 2.019531 4.285156 -3.613281 0.0703125 -10.667969 C -4.246094 -17.894531 -6.40625 -25.863281 -6.40625 -34.574219 L -6.40625 -155.074219 L 53.589844 -155.074219 L 53.589844 -34.574219 L 40.878906 -34.574219 L 40.878906 -47.285156 L 70.980469 -47.285156 L 70.980469 -34.574219 L 58.269531 -34.574219 L 58.269531 -155.074219 Z M 70.980469 -129.652344 L 70.980469 -142.363281 L 83.691406 -142.363281 L 83.691406 -21.863281 L 28.167969 -21.863281 L 28.167969 -142.363281 L 40.878906 -142.363281 L 40.878906 -129.652344 L 6.304688 -129.652344 L 6.304688 -142.363281 L 19.015625 -142.363281 L 19.015625 -34.574219 C 19.015625 -30.539062 19.976562 -26.917969 21.894531 -23.703125 C 23.917969 -20.316406 26.621094 -17.613281 30.007812 -15.589844 C 33.222656 -13.671875 36.84375 -12.710938 40.878906 -12.710938 L 70.980469 -12.710938 C 75.011719 -12.710938 78.636719 -13.671875 81.847656 -15.589844 C 85.234375 -17.613281 87.941406 -20.316406 89.964844 -23.703125 C 91.882812 -26.917969 92.84375 -30.539062 92.84375 -34.574219 L 92.84375 -142.363281 L 105.554688 -142.363281 L 105.554688 -129.652344 Z M 70.980469 -129.652344 "/></g></g></g><g fill="#841711" fill-opacity="1"><g transform="translate(452.930299, 365.642163)"><g><path d="M 91.113281 -95.078125 L 40.066406 -95.078125 L 40.066406 -107.789062 L 52.777344 -107.789062 L 52.777344 -34.574219 L 40.066406 -34.574219 L 40.066406 -47.285156 L 103.824219 -47.285156 L 103.824219 12.710938 L 40.066406 12.710938 C 31.355469 12.710938 23.386719 10.550781 16.15625 6.234375 C 9.105469 2.019531 3.46875 -3.613281 -0.742188 -10.667969 C -5.0625 -17.894531 -7.21875 -25.863281 -7.21875 -34.574219 L -7.21875 -107.789062 C -7.21875 -116.5 -5.0625 -124.46875 -0.742188 -131.699219 C 3.46875 -138.75 9.105469 -144.386719 16.15625 -148.597656 C 23.386719 -152.917969 31.355469 -155.074219 40.066406 -155.074219 L 103.824219 -155.074219 L 103.824219 -95.078125 Z M 91.113281 -120.5 L 91.113281 -107.789062 L 78.402344 -107.789062 L 78.402344 -142.363281 L 91.113281 -142.363281 L 91.113281 -129.652344 L 40.066406 -129.652344 C 36.03125 -129.652344 32.40625 -128.695312 29.195312 -126.773438 C 25.808594 -124.75 23.105469 -122.046875 21.082031 -118.660156 C 19.160156 -115.449219 18.203125 -111.824219 18.203125 -107.789062 L 18.203125 -34.574219 C 18.203125 -30.539062 19.160156 -26.917969 21.082031 -23.703125 C 23.105469 -20.316406 25.808594 -17.613281 29.195312 -15.589844 C 32.40625 -13.671875 36.03125 -12.710938 40.066406 -12.710938 L 91.113281 -12.710938 L 91.113281 0 L 78.402344 0 L 78.402344 -34.574219 L 91.113281 -34.574219 L 91.113281 -21.863281 L 27.355469 -21.863281 L 27.355469 -120.5 Z M 91.113281 -120.5 "/></g></g></g><g fill="#841711" fill-opacity="1"><g transform="translate(551.568373, 365.642163)"><g><path d="M 29.285156 -155.074219 L 53.996094 -155.074219 L 53.996094 12.710938 L -6 12.710938 L -6 -119.789062 C -6 -126.164062 -4.398438 -132.074219 -1.195312 -137.523438 C 1.953125 -142.871094 6.203125 -147.121094 11.554688 -150.269531 C 17 -153.472656 22.910156 -155.074219 29.285156 -155.074219 Z M 29.285156 -129.652344 C 27.527344 -129.652344 25.914062 -129.222656 24.445312 -128.359375 C 22.878906 -127.4375 21.636719 -126.195312 20.71875 -124.632812 C 19.855469 -123.164062 19.421875 -121.550781 19.421875 -119.789062 L 19.421875 0 L 6.710938 0 L 6.710938 -12.710938 L 41.285156 -12.710938 L 41.285156 0 L 28.574219 0 L 28.574219 -142.363281 L 41.285156 -142.363281 L 41.285156 -129.652344 Z M 29.285156 -129.652344 "/></g></g></g><g fill="#841711" fill-opacity="1"><g transform="translate(604.649943, 365.642163)"><g><path d="M 70.164062 -155.074219 C 78.875 -155.074219 86.84375 -152.917969 94.074219 -148.597656 C 101.125 -144.386719 106.761719 -138.75 110.972656 -131.699219 C 115.292969 -124.46875 117.449219 -116.5 117.449219 -107.789062 L 117.449219 -34.574219 C 117.449219 -25.863281 115.292969 -17.894531 110.972656 -10.667969 C 106.761719 -3.613281 101.125 2.019531 94.074219 6.234375 C 86.84375 10.550781 78.875 12.710938 70.164062 12.710938 L 40.066406 12.710938 C 31.355469 12.710938 23.386719 10.550781 16.15625 6.234375 C 9.105469 2.019531 3.46875 -3.613281 -0.742188 -10.667969 C -5.0625 -17.894531 -7.21875 -25.863281 -7.21875 -34.574219 L -7.21875 -107.789062 C -7.21875 -116.5 -5.0625 -124.46875 -0.742188 -131.699219 C 3.46875 -138.75 9.105469 -144.386719 16.15625 -148.597656 C 23.386719 -152.917969 31.355469 -155.074219 40.066406 -155.074219 Z M 70.164062 -129.652344 L 40.066406 -129.652344 C 36.03125 -129.652344 32.40625 -128.695312 29.195312 -126.773438 C 25.808594 -124.75 23.105469 -122.046875 21.082031 -118.660156 C 19.160156 -115.449219 18.203125 -111.824219 18.203125 -107.789062 L 18.203125 -34.574219 C 18.203125 -30.539062 19.160156 -26.917969 21.082031 -23.703125 C 23.105469 -20.316406 25.808594 -17.613281 29.195312 -15.589844 C 32.40625 -13.671875 36.03125 -12.710938 40.066406 -12.710938 L 70.164062 -12.710938 C 74.199219 -12.710938 77.824219 -13.671875 81.035156 -15.589844 C 84.421875 -17.613281 87.125 -20.316406 89.148438 -23.703125 C 91.070312 -26.917969 92.027344 -30.539062 92.027344 -34.574219 L 92.027344 -107.789062 C 92.027344 -111.824219 91.070312 -115.449219 89.148438 -118.660156 C 87.125 -122.046875 84.421875 -124.75 81.035156 -126.773438 C 77.824219 -128.695312 74.199219 -129.652344 70.164062 -129.652344 Z M 40.066406 -47.285156 L 70.164062 -47.285156 L 70.164062 -34.574219 L 57.453125 -34.574219 L 57.453125 -107.789062 L 70.164062 -107.789062 L 70.164062 -95.078125 L 40.066406 -95.078125 L 40.066406 -107.789062 L 52.777344 -107.789062 L 52.777344 -34.574219 L 40.066406 -34.574219 Z M 27.355469 -21.863281 L 27.355469 -120.5 L 82.875 -120.5 L 82.875 -21.863281 Z M 27.355469 -21.863281 "/></g></g></g><g fill="#841711" fill-opacity="1"><g transform="translate(719.558281, 365.642163)"><g><path d="M 71.792969 -155.074219 L 119.078125 -155.074219 L 119.078125 12.710938 L 63.59375 12.710938 L 30.113281 -61.261719 L 41.691406 -66.503906 L 54.402344 -66.503906 L 54.402344 12.710938 L -5.59375 12.710938 L -5.59375 -155.074219 L 7.117188 -155.074219 C 20.195312 -155.074219 32.1875 -151.550781 43.101562 -144.5 C 53.992188 -137.460938 62.121094 -128.070312 67.488281 -116.328125 L 83.378906 -81.085938 L 71.792969 -75.859375 L 59.082031 -75.859375 L 59.082031 -155.074219 Z M 71.792969 -129.652344 L 71.792969 -142.363281 L 84.503906 -142.363281 L 84.503906 -75.859375 L 60.203125 -70.636719 L 44.367188 -105.757812 C 41.058594 -113 36.035156 -118.796875 29.300781 -123.144531 C 22.589844 -127.484375 15.195312 -129.652344 7.117188 -129.652344 L 7.117188 -142.363281 L 19.828125 -142.363281 L 19.828125 0 L 7.117188 0 L 7.117188 -12.710938 L 41.691406 -12.710938 L 41.691406 0 L 28.980469 0 L 28.980469 -66.503906 L 53.273438 -71.746094 L 83.371094 -5.242188 L 71.792969 0 L 71.792969 -12.710938 L 106.367188 -12.710938 L 106.367188 0 L 93.65625 0 L 93.65625 -142.363281 L 106.367188 -142.363281 L 106.367188 -129.652344 Z M 71.792969 -129.652344 "/></g></g></g><g fill="#841711" fill-opacity="1"><g transform="translate(837.720586, 365.642163)"><g><path d="M 85.417969 -95.078125 L 41.691406 -95.078125 L 41.691406 -107.789062 L 54.402344 -107.789062 L 54.402344 -86.230469 L 41.691406 -86.230469 L 41.691406 -98.941406 L 88.773438 -98.941406 L 88.773438 -39.148438 L 41.691406 -39.148438 L 41.691406 -51.859375 L 54.402344 -51.859375 L 54.402344 -34.574219 L 41.691406 -34.574219 L 41.691406 -47.285156 L 119.078125 -47.285156 L 119.078125 12.710938 L -5.59375 12.710938 L -5.59375 -155.074219 L 119.078125 -155.074219 L 119.078125 -128.738281 C 119.078125 -119.574219 115.828125 -111.6875 109.328125 -105.078125 C 102.769531 -98.414062 94.800781 -95.078125 85.417969 -95.078125 Z M 85.417969 -120.5 C 87.699219 -120.5 89.625 -121.304688 91.203125 -122.90625 C 92.839844 -124.570312 93.65625 -126.511719 93.65625 -128.738281 L 93.65625 -142.363281 L 106.367188 -142.363281 L 106.367188 -129.652344 L 7.117188 -129.652344 L 7.117188 -142.363281 L 19.828125 -142.363281 L 19.828125 0 L 7.117188 0 L 7.117188 -12.710938 L 106.367188 -12.710938 L 106.367188 0 L 93.65625 0 L 93.65625 -34.574219 L 106.367188 -34.574219 L 106.367188 -21.863281 L 28.980469 -21.863281 L 28.980469 -64.574219 L 76.0625 -64.574219 L 76.0625 -51.859375 L 63.351562 -51.859375 L 63.351562 -86.230469 L 76.0625 -86.230469 L 76.0625 -73.519531 L 28.980469 -73.519531 L 28.980469 -120.5 Z M 85.417969 -120.5 "/></g></g></g><g fill="#841711" fill-opacity="1"><g transform="translate(951.001941, 365.642163)"><g><path d="M 39.863281 -155.074219 L 117.246094 -155.074219 L 117.246094 -84.300781 L 57.25 -84.300781 L 57.25 -107.789062 L 69.960938 -107.789062 L 69.960938 -95.078125 L 39.863281 -95.078125 L 39.863281 -107.789062 L 52.574219 -107.789062 L 52.574219 -86.230469 L 39.863281 -86.230469 L 39.863281 -98.941406 L 117.246094 -98.941406 L 117.246094 -34.574219 C 117.246094 -25.863281 115.089844 -17.894531 110.769531 -10.667969 C 106.558594 -3.613281 100.921875 2.019531 93.871094 6.234375 C 86.640625 10.550781 78.671875 12.710938 69.960938 12.710938 L -7.421875 12.710938 L -7.421875 -55.828125 L 52.574219 -55.828125 L 52.574219 -34.574219 L 39.863281 -34.574219 L 39.863281 -47.285156 L 69.960938 -47.285156 L 69.960938 -34.574219 L 57.25 -34.574219 L 57.25 -51.859375 L 69.960938 -51.859375 L 69.960938 -39.148438 L 39.863281 -39.148438 C 31.195312 -39.148438 23.261719 -41.253906 16.058594 -45.464844 C 8.957031 -49.613281 3.289062 -55.234375 -0.945312 -62.324219 C -5.265625 -69.550781 -7.421875 -77.519531 -7.421875 -86.230469 L -7.421875 -107.789062 C -7.421875 -116.5 -5.265625 -124.46875 -0.945312 -131.699219 C 3.265625 -138.75 8.902344 -144.386719 15.953125 -148.597656 C 23.183594 -152.917969 31.152344 -155.074219 39.863281 -155.074219 Z M 39.863281 -129.652344 C 35.828125 -129.652344 32.203125 -128.695312 28.992188 -126.773438 C 25.605469 -124.75 22.902344 -122.046875 20.878906 -118.660156 C 18.957031 -115.449219 18 -111.824219 18 -107.789062 L 18 -86.230469 C 18 -82.199219 18.957031 -78.574219 20.878906 -75.363281 C 22.878906 -72.011719 25.546875 -69.363281 28.886719 -67.410156 C 32.125 -65.519531 35.785156 -64.574219 39.863281 -64.574219 L 82.671875 -64.574219 L 82.671875 -21.863281 L 27.152344 -21.863281 L 27.152344 -43.117188 L 39.863281 -43.117188 L 39.863281 -30.40625 L 5.289062 -30.40625 L 5.289062 -43.117188 L 18 -43.117188 L 18 0 L 5.289062 0 L 5.289062 -12.710938 L 69.960938 -12.710938 C 73.996094 -12.710938 77.621094 -13.671875 80.832031 -15.589844 C 84.21875 -17.613281 86.921875 -20.316406 88.945312 -23.703125 C 90.867188 -26.917969 91.824219 -30.539062 91.824219 -34.574219 L 91.824219 -86.230469 L 104.535156 -86.230469 L 104.535156 -73.519531 L 27.152344 -73.519531 L 27.152344 -120.5 L 82.671875 -120.5 L 82.671875 -97.011719 L 69.960938 -97.011719 L 69.960938 -109.722656 L 104.535156 -109.722656 L 104.535156 -97.011719 L 91.824219 -97.011719 L 91.824219 -142.363281 L 104.535156 -142.363281 L 104.535156 -129.652344 Z M 39.863281 -129.652344 "/></g></g></g><g fill="#f2c858" fill-opacity="1"><g transform="translate(9.56721, 158.757994)"><g><path d="M 71.796875 -142.359375 C 78.160156 -142.359375 83.953125 -140.796875 89.171875 -137.671875 C 94.398438 -134.554688 98.570312 -130.390625 101.6875 -125.171875 C 104.800781 -119.953125 106.359375 -114.15625 106.359375 -107.78125 L 106.359375 0 L 71.796875 0 L 71.796875 -51.859375 L 41.6875 -51.859375 L 41.6875 0 L 7.125 0 L 7.125 -142.359375 Z M 41.6875 -86.234375 L 71.796875 -86.234375 L 71.796875 -107.78125 L 41.6875 -107.78125 Z M 41.6875 -86.234375 "/></g></g></g><g fill="#f2c858" fill-opacity="1"><g transform="translate(126.91605, 158.757994)"><g><path d="M 40.875 -34.578125 L 92.328125 -34.578125 L 92.328125 0 L 6.296875 0 L 6.296875 -107.78125 C 6.296875 -114.15625 7.851562 -119.953125 10.96875 -125.171875 C 14.09375 -130.390625 18.265625 -134.554688 23.484375 -137.671875 C 28.703125 -140.796875 34.5 -142.359375 40.875 -142.359375 Z M 40.875 -34.578125 "/></g></g></g><g fill="#f2c858" fill-opacity="1"><g transform="translate(223.520395, 158.757994)"><g><path d="M 85.421875 -107.78125 L 41.6875 -107.78125 L 41.6875 -86.234375 L 76.0625 -86.234375 L 76.0625 -51.859375 L 41.6875 -51.859375 L 41.6875 -34.578125 L 106.359375 -34.578125 L 106.359375 0 L 7.125 0 L 7.125 -142.359375 L 106.359375 -142.359375 L 106.359375 -128.734375 C 106.359375 -123.035156 104.320312 -118.117188 100.25 -113.984375 C 96.1875 -109.847656 91.242188 -107.78125 85.421875 -107.78125 Z M 85.421875 -107.78125 "/></g></g></g><g fill="#f2c858" fill-opacity="1"><g transform="translate(336.801695, 158.757994)"><g><path d="M 112.0625 -142.5625 L 72.8125 -71.390625 L 112.0625 -0.203125 L 77.484375 -0.203125 L 55.515625 -40.265625 L 33.5625 -0.203125 L -1.015625 -0.203125 L 38.234375 -71.390625 L -1.015625 -142.5625 L 33.5625 -142.5625 L 55.515625 -102.703125 L 70.78125 -130.359375 C 72.945312 -134.160156 75.859375 -137.144531 79.515625 -139.3125 C 83.179688 -141.476562 87.179688 -142.5625 91.515625 -142.5625 Z M 112.0625 -142.5625 "/></g></g></g><g fill="#f2c858" fill-opacity="1"><g transform="translate(452.729983, 158.757994)"><g/></g></g><g fill="#f2c858" fill-opacity="1"><g transform="translate(9.56721, 365.642163)"><g><path d="M 39.859375 -142.359375 L 104.53125 -142.359375 L 104.53125 -97.015625 L 69.96875 -97.015625 L 69.96875 -107.78125 L 39.859375 -107.78125 L 39.859375 -86.234375 L 104.53125 -86.234375 L 104.53125 -34.578125 C 104.53125 -28.203125 102.96875 -22.40625 99.84375 -17.1875 C 96.726562 -11.96875 92.5625 -7.796875 87.34375 -4.671875 C 82.125 -1.554688 76.332031 0 69.96875 0 L 5.28125 0 L 5.28125 -43.109375 L 39.859375 -43.109375 L 39.859375 -34.578125 L 69.96875 -34.578125 L 69.96875 -51.859375 L 39.859375 -51.859375 C 33.484375 -51.859375 27.6875 -53.382812 22.46875 -56.4375 C 17.25 -59.488281 13.078125 -63.625 9.953125 -68.84375 C 6.835938 -74.0625 5.28125 -79.859375 5.28125 -86.234375 L 5.28125 -107.78125 C 5.28125 -114.15625 6.835938 -119.953125 9.953125 -125.171875 C 13.078125 -130.390625 17.25 -134.554688 22.46875 -137.671875 C 27.6875 -140.796875 33.484375 -142.359375 39.859375 -142.359375 Z M 39.859375 -142.359375 "/></g></g></g><g fill="#f2c858" fill-opacity="1"><g transform="translate(124.882294, 365.642163)"><g><path d="M 70.171875 -142.359375 C 76.535156 -142.359375 82.328125 -140.796875 87.546875 -137.671875 C 92.773438 -134.554688 96.945312 -130.390625 100.0625 -125.171875 C 103.175781 -119.953125 104.734375 -114.15625 104.734375 -107.78125 L 104.734375 -34.578125 C 104.734375 -28.203125 103.175781 -22.40625 100.0625 -17.1875 C 96.945312 -11.96875 92.773438 -7.796875 87.546875 -4.671875 C 82.328125 -1.554688 76.535156 0 70.171875 0 L 40.0625 0 C 33.6875 0 27.890625 -1.554688 22.671875 -4.671875 C 17.453125 -7.796875 13.28125 -11.96875 10.15625 -17.1875 C 7.039062 -22.40625 5.484375 -28.203125 5.484375 -34.578125 L 5.484375 -107.78125 C 5.484375 -114.15625 7.039062 -119.953125 10.15625 -125.171875 C 13.28125 -130.390625 17.453125 -134.554688 22.671875 -137.671875 C 27.890625 -140.796875 33.6875 -142.359375 40.0625 -142.359375 Z M 40.0625 -34.578125 L 70.171875 -34.578125 L 70.171875 -107.78125 L 40.0625 -107.78125 Z M 40.0625 -34.578125 "/></g></g></g><g fill="#f2c858" fill-opacity="1"><g transform="translate(239.790606, 365.642163)"><g><path d="M 40.875 -34.578125 L 92.328125 -34.578125 L 92.328125 0 L 6.296875 0 L 6.296875 -107.78125 C 6.296875 -114.15625 7.851562 -119.953125 10.96875 -125.171875 C 14.09375 -130.390625 18.265625 -134.554688 23.484375 -137.671875 C 28.703125 -140.796875 34.5 -142.359375 40.875 -142.359375 Z M 40.875 -34.578125 "/></g></g></g><g fill="#f2c858" fill-opacity="1"><g transform="translate(336.394951, 365.642163)"><g><path d="M 70.984375 -142.359375 L 105.546875 -142.359375 L 105.546875 -34.578125 C 105.546875 -28.203125 103.988281 -22.40625 100.875 -17.1875 C 97.757812 -11.96875 93.585938 -7.796875 88.359375 -4.671875 C 83.140625 -1.554688 77.347656 0 70.984375 0 L 40.875 0 C 34.5 0 28.703125 -1.554688 23.484375 -4.671875 C 18.265625 -7.796875 14.09375 -11.96875 10.96875 -17.1875 C 7.851562 -22.40625 6.296875 -28.203125 6.296875 -34.578125 L 6.296875 -142.359375 L 40.875 -142.359375 L 40.875 -34.578125 L 70.984375 -34.578125 Z M 70.984375 -142.359375 "/></g></g></g><g fill="#f2c858" fill-opacity="1"><g transform="translate(452.930299, 365.642163)"><g><path d="M 91.109375 -107.78125 L 40.0625 -107.78125 L 40.0625 -34.578125 L 91.109375 -34.578125 L 91.109375 0 L 40.0625 0 C 33.6875 0 27.890625 -1.554688 22.671875 -4.671875 C 17.453125 -7.796875 13.28125 -11.96875 10.15625 -17.1875 C 7.039062 -22.40625 5.484375 -28.203125 5.484375 -34.578125 L 5.484375 -107.78125 C 5.484375 -114.15625 7.039062 -119.953125 10.15625 -125.171875 C 13.28125 -130.390625 17.453125 -134.554688 22.671875 -137.671875 C 27.890625 -140.796875 33.6875 -142.359375 40.0625 -142.359375 L 91.109375 -142.359375 Z M 91.109375 -107.78125 "/></g></g></g><g fill="#f2c858" fill-opacity="1"><g transform="translate(551.568373, 365.642163)"><g><path d="M 29.28125 -142.359375 L 41.28125 -142.359375 L 41.28125 0 L 6.71875 0 L 6.71875 -119.78125 C 6.71875 -123.851562 7.734375 -127.617188 9.765625 -131.078125 C 11.796875 -134.535156 14.539062 -137.28125 18 -139.3125 C 21.457031 -141.34375 25.21875 -142.359375 29.28125 -142.359375 Z M 29.28125 -142.359375 "/></g></g></g><g fill="#f2c858" fill-opacity="1"><g transform="translate(604.649943, 365.642163)"><g><path d="M 70.171875 -142.359375 C 76.535156 -142.359375 82.328125 -140.796875 87.546875 -137.671875 C 92.773438 -134.554688 96.945312 -130.390625 100.0625 -125.171875 C 103.175781 -119.953125 104.734375 -114.15625 104.734375 -107.78125 L 104.734375 -34.578125 C 104.734375 -28.203125 103.175781 -22.40625 100.0625 -17.1875 C 96.945312 -11.96875 92.773438 -7.796875 87.546875 -4.671875 C 82.328125 -1.554688 76.535156 0 70.171875 0 L 40.0625 0 C 33.6875 0 27.890625 -1.554688 22.671875 -4.671875 C 17.453125 -7.796875 13.28125 -11.96875 10.15625 -17.1875 C 7.039062 -22.40625 5.484375 -28.203125 5.484375 -34.578125 L 5.484375 -107.78125 C 5.484375 -114.15625 7.039062 -119.953125 10.15625 -125.171875 C 13.28125 -130.390625 17.453125 -134.554688 22.671875 -137.671875 C 27.890625 -140.796875 33.6875 -142.359375 40.0625 -142.359375 Z M 40.0625 -34.578125 L 70.171875 -34.578125 L 70.171875 -107.78125 L 40.0625 -107.78125 Z M 40.0625 -34.578125 "/></g></g></g><g fill="#f2c858" fill-opacity="1"><g transform="translate(719.558281, 365.642163)"><g><path d="M 71.796875 -142.359375 L 106.359375 -142.359375 L 106.359375 0 L 71.796875 0 L 41.6875 -66.5 L 41.6875 0 L 7.125 0 L 7.125 -142.359375 C 17.695312 -142.359375 27.390625 -139.507812 36.203125 -133.8125 C 45.015625 -128.125 51.585938 -120.535156 55.921875 -111.046875 L 71.796875 -75.859375 Z M 71.796875 -142.359375 "/></g></g></g><g fill="#f2c858" fill-opacity="1"><g transform="translate(837.720586, 365.642163)"><g><path d="M 85.421875 -107.78125 L 41.6875 -107.78125 L 41.6875 -86.234375 L 76.0625 -86.234375 L 76.0625 -51.859375 L 41.6875 -51.859375 L 41.6875 -34.578125 L 106.359375 -34.578125 L 106.359375 0 L 7.125 0 L 7.125 -142.359375 L 106.359375 -142.359375 L 106.359375 -128.734375 C 106.359375 -123.035156 104.320312 -118.117188 100.25 -113.984375 C 96.1875 -109.847656 91.242188 -107.78125 85.421875 -107.78125 Z M 85.421875 -107.78125 "/></g></g></g><g fill="#f2c858" fill-opacity="1"><g transform="translate(951.001941, 365.642163)"><g><path d="M 39.859375 -142.359375 L 104.53125 -142.359375 L 104.53125 -97.015625 L 69.96875 -97.015625 L 69.96875 -107.78125 L 39.859375 -107.78125 L 39.859375 -86.234375 L 104.53125 -86.234375 L 104.53125 -34.578125 C 104.53125 -28.203125 102.96875 -22.40625 99.84375 -17.1875 C 96.726562 -11.96875 92.5625 -7.796875 87.34375 -4.671875 C 82.125 -1.554688 76.332031 0 69.96875 0 L 5.28125 0 L 5.28125 -43.109375 L 39.859375 -43.109375 L 39.859375 -34.578125 L 69.96875 -34.578125 L 69.96875 -51.859375 L 39.859375 -51.859375 C 33.484375 -51.859375 27.6875 -53.382812 22.46875 -56.4375 C 17.25 -59.488281 13.078125 -63.625 9.953125 -68.84375 C 6.835938 -74.0625 5.28125 -79.859375 5.28125 -86.234375 L 5.28125 -107.78125 C 5.28125 -114.15625 6.835938 -119.953125 9.953125 -125.171875 C 13.078125 -130.390625 17.25 -134.554688 22.46875 -137.671875 C 27.6875 -140.796875 33.484375 -142.359375 39.859375 -142.359375 Z M 39.859375 -142.359375 "/></g></g></g></g></g></svg>