<svg xmlns="http://www.w3.org/2000/svg" xmlns:xlink="http://www.w3.org/1999/xlink" width="1500" zoomAndPan="magnify" viewBox="0 0 1125 449.999984" height="600" preserveAspectRatio="xMidYMid meet" version="1.0"><defs><g/><clipPath id="fa9cd0f691"><path d="M 0 113.785156 L 263.492188 113.785156 L 263.492188 366.183594 L 0 366.183594 Z M 0 113.785156 " clip-rule="nonzero"/></clipPath><clipPath id="205d81cc8d"><path d="M 196.765625 1 L 379.269531 1 L 379.269531 366.007812 L 196.765625 366.007812 Z M 196.765625 1 " clip-rule="nonzero"/></clipPath><clipPath id="4f2bde4a67"><path d="M 0.785156 0 L 183.269531 0 L 183.269531 365.007812 L 0.785156 365.007812 Z M 0.785156 0 " clip-rule="nonzero"/></clipPath><clipPath id="ab6ec54ca8"><path d="M 0.785156 72 L 111 72 L 111 293 L 0.785156 293 Z M 0.785156 72 " clip-rule="nonzero"/></clipPath><clipPath id="cb0a133acb"><rect x="0" width="184" y="0" height="366"/></clipPath><clipPath id="f9183ce751"><rect x="0" width="380" y="0" height="372"/></clipPath><clipPath id="b9c5cceef4"><rect x="0" width="691" y="0" height="263"/></clipPath><clipPath id="6fe8a63f61"><rect x="0" width="625" y="0" height="106"/></clipPath></defs><g transform="matrix(1, 0, 0, 1, 0, 44)"><g clip-path="url(#f9183ce751)"><g clip-path="url(#fa9cd0f691)"><path fill="#f2c858" d="M 129.84375 168.613281 L 170.117188 168.613281 C 173.144531 168.613281 175.601562 166.15625 175.601562 163.128906 L 175.601562 119.257812 C 175.601562 117.472656 174.734375 115.816406 173.285156 114.785156 C 171.828125 113.765625 169.972656 113.488281 168.285156 114.09375 C 148.269531 121.179688 131.949219 138.878906 124.621094 161.441406 C 124.085938 163.109375 124.371094 164.941406 125.402344 166.355469 C 126.441406 167.769531 128.078125 168.613281 129.84375 168.613281 Z M 227.699219 119.992188 C 226.007812 119.007812 223.902344 119.015625 222.214844 119.992188 C 220.523438 120.96875 219.472656 122.78125 219.472656 124.742188 L 219.472656 163.128906 C 219.472656 172.199219 212.089844 179.582031 203.019531 179.582031 L 126.246094 179.582031 C 123.21875 179.582031 120.761719 182.039062 120.761719 185.066406 C 120.761719 190.957031 121.496094 196.824219 122.945312 202.546875 L 8.539062 316.964844 C 3.109375 322.394531 0.117188 329.609375 0.117188 337.296875 C 0.117188 353.148438 13.003906 366.046875 28.851562 366.046875 C 36.527344 366.046875 43.746094 363.0625 49.183594 357.621094 L 135.996094 270.8125 C 145.316406 261.488281 157.710938 256.355469 170.894531 256.355469 L 192.050781 256.355469 C 231.359375 256.355469 263.34375 224.375 263.34375 185.066406 C 263.34375 158.5 249.03125 132.34375 227.699219 119.992188 Z M 33.019531 344.097656 C 26.976562 344.097656 22.050781 339.175781 22.050781 333.132812 C 22.050781 327.085938 26.976562 322.164062 33.019531 322.164062 C 39.0625 322.164062 43.988281 327.085938 43.988281 333.132812 C 43.988281 339.175781 39.074219 344.097656 33.019531 344.097656 Z M 175.03125 209.457031 L 164.0625 231.394531 C 163.097656 233.3125 161.167969 234.421875 159.148438 234.421875 C 158.324219 234.421875 157.492188 234.234375 156.703125 233.839844 C 153.992188 232.480469 152.898438 229.1875 154.246094 226.480469 L 165.214844 204.542969 C 166.574219 201.835938 169.863281 200.738281 172.574219 202.085938 C 175.28125 203.449219 176.378906 206.75 175.03125 209.457031 Z M 196.964844 209.457031 L 185.996094 231.394531 C 185.03125 233.3125 183.101562 234.421875 181.085938 234.421875 C 180.261719 234.421875 179.429688 234.234375 178.636719 233.839844 C 175.929688 232.480469 174.832031 229.1875 176.179688 226.480469 L 187.148438 204.542969 C 188.507812 201.835938 191.800781 200.738281 194.507812 202.085938 C 197.21875 203.449219 198.316406 206.75 196.964844 209.457031 Z M 218.902344 209.457031 L 207.933594 231.394531 C 206.96875 233.3125 205.039062 234.421875 203.019531 234.421875 C 202.195312 234.421875 201.363281 234.234375 200.574219 233.839844 C 197.863281 232.480469 196.769531 229.1875 198.117188 226.480469 L 209.085938 204.542969 C 210.445312 201.835938 213.734375 200.738281 216.445312 202.085938 C 219.152344 203.449219 220.25 206.75 218.902344 209.457031 Z M 218.902344 209.457031 " fill-opacity="1" fill-rule="nonzero"/></g><g clip-path="url(#205d81cc8d)"><g transform="matrix(1, 0, 0, 1, 196, 1)"><g clip-path="url(#cb0a133acb)"><g clip-path="url(#4f2bde4a67)"><path fill="#03466e" d="M 24.371094 29.789062 L 51.261719 0.00390625 C 66.371094 4.15625 80.707031 10.191406 94.078125 17.769531 L 92.050781 57.835938 C 91.085938 76.660156 106.628906 92.207031 125.457031 91.242188 L 165.523438 89.214844 C 173.101562 102.535156 179.085938 116.921875 183.285156 132.03125 L 153.503906 158.917969 C 139.503906 171.566406 139.503906 193.53125 153.503906 206.128906 L 183.285156 233.019531 C 179.136719 248.128906 173.101562 262.464844 165.523438 275.835938 L 125.457031 273.808594 C 106.628906 272.84375 91.085938 288.386719 92.050781 307.214844 L 94.078125 347.28125 C 80.753906 354.859375 66.371094 360.847656 51.261719 365.046875 L 24.371094 335.261719 C 18.046875 328.261719 9.40625 324.785156 0.765625 324.785156 L 0.765625 296.546875 C 63.714844 296.546875 114.738281 245.519531 114.738281 182.574219 C 114.738281 119.625 63.714844 68.601562 0.765625 68.601562 L 0.765625 40.359375 C 9.40625 40.265625 18.046875 36.789062 24.371094 29.789062 Z M 24.371094 29.789062 " fill-opacity="1" fill-rule="nonzero"/></g><g clip-path="url(#ab6ec54ca8)"><path fill="#03466e" d="M 110.492188 182.476562 C 110.492188 243.058594 61.347656 292.203125 0.765625 292.203125 L 0.765625 277.042969 C 52.996094 277.042969 95.332031 234.707031 95.332031 182.476562 C 95.332031 130.246094 52.996094 87.910156 0.765625 87.910156 L 0.765625 72.75 C 61.347656 72.75 110.492188 121.894531 110.492188 182.476562 Z M 110.492188 182.476562 " fill-opacity="1" fill-rule="nonzero"/></g></g></g></g></g></g><g transform="matrix(1, 0, 0, 1, 423, 70)"><g clip-path="url(#b9c5cceef4)"><g fill="#841711" fill-opacity="1"><g transform="translate(6.394264, 101.88548)"><g><path d="M 46.296875 -100 C 51.914062 -100 57.050781 -98.609375 61.710938 -95.824219 C 66.261719 -93.105469 69.894531 -89.472656 72.609375 -84.925781 C 75.394531 -80.265625 76.789062 -75.125 76.789062 -69.507812 L 76.789062 8.195312 L 38.097656 8.195312 L 38.097656 -33.441406 L 46.296875 -33.441406 L 46.296875 -25.246094 L 26.886719 -25.246094 L 26.886719 -33.441406 L 35.082031 -33.441406 L 35.082031 8.195312 L -3.605469 8.195312 L -3.605469 -100 Z M 46.296875 -83.605469 L 4.589844 -83.605469 L 4.589844 -91.804688 L 12.785156 -91.804688 L 12.785156 0 L 4.589844 0 L 4.589844 -8.195312 L 26.886719 -8.195312 L 26.886719 0 L 18.6875 0 L 18.6875 -41.640625 L 54.492188 -41.640625 L 54.492188 0 L 46.296875 0 L 46.296875 -8.195312 L 68.589844 -8.195312 L 68.589844 0 L 60.394531 0 L 60.394531 -69.507812 C 60.394531 -72.109375 59.773438 -74.445312 58.539062 -76.519531 C 57.234375 -78.703125 55.488281 -80.445312 53.304688 -81.75 C 51.234375 -82.988281 48.898438 -83.605469 46.296875 -83.605469 Z M 26.886719 -63.804688 L 46.296875 -63.804688 L 46.296875 -55.605469 L 38.097656 -55.605469 L 38.097656 -69.507812 L 46.296875 -69.507812 L 46.296875 -61.3125 L 26.886719 -61.3125 L 26.886719 -69.507812 L 35.082031 -69.507812 L 35.082031 -55.605469 L 26.886719 -55.605469 Z M 18.6875 -47.410156 L 18.6875 -77.707031 L 54.492188 -77.707031 L 54.492188 -47.410156 Z M 18.6875 -47.410156 "/></g></g></g><g fill="#841711" fill-opacity="1"><g transform="translate(82.066932, 101.88548)"><g><path d="M 26.359375 -30.492188 L 67.738281 -30.492188 L 67.738281 8.195312 L -4.132812 8.195312 L -4.132812 -69.507812 C -4.132812 -75.125 -2.738281 -80.265625 0.046875 -84.925781 C 2.761719 -89.472656 6.394531 -93.105469 10.945312 -95.824219 C 15.605469 -98.609375 20.742188 -100 26.359375 -100 L 34.558594 -100 L 34.558594 -22.296875 L 26.359375 -22.296875 Z M 18.164062 -14.097656 L 18.164062 -91.804688 L 26.359375 -91.804688 L 26.359375 -83.605469 C 23.757812 -83.605469 21.421875 -82.988281 19.351562 -81.75 C 17.167969 -80.445312 15.421875 -78.703125 14.117188 -76.519531 C 12.882812 -74.445312 12.261719 -72.109375 12.261719 -69.507812 L 12.261719 0 L 4.066406 0 L 4.066406 -8.195312 L 59.542969 -8.195312 L 59.542969 0 L 51.34375 0 L 51.34375 -22.296875 L 59.542969 -22.296875 L 59.542969 -14.097656 Z M 18.164062 -14.097656 "/></g></g></g><g fill="#841711" fill-opacity="1"><g transform="translate(144.362465, 101.88548)"><g><path d="M 55.082031 -61.3125 L 26.886719 -61.3125 L 26.886719 -69.507812 L 35.082031 -69.507812 L 35.082031 -55.605469 L 26.886719 -55.605469 L 26.886719 -63.804688 L 57.246094 -63.804688 L 57.246094 -25.246094 L 26.886719 -25.246094 L 26.886719 -33.441406 L 35.082031 -33.441406 L 35.082031 -22.296875 L 26.886719 -22.296875 L 26.886719 -30.492188 L 76.789062 -30.492188 L 76.789062 8.195312 L -3.605469 8.195312 L -3.605469 -100 L 76.789062 -100 L 76.789062 -83.015625 C 76.789062 -77.109375 74.691406 -72.023438 70.5 -67.761719 C 66.269531 -63.460938 61.132812 -61.3125 55.082031 -61.3125 Z M 55.082031 -77.707031 C 56.550781 -77.707031 57.796875 -78.222656 58.8125 -79.257812 C 59.867188 -80.328125 60.394531 -81.582031 60.394531 -83.015625 L 60.394531 -91.804688 L 68.589844 -91.804688 L 68.589844 -83.605469 L 4.589844 -83.605469 L 4.589844 -91.804688 L 12.785156 -91.804688 L 12.785156 0 L 4.589844 0 L 4.589844 -8.195312 L 68.589844 -8.195312 L 68.589844 0 L 60.394531 0 L 60.394531 -22.296875 L 68.589844 -22.296875 L 68.589844 -14.097656 L 18.6875 -14.097656 L 18.6875 -41.640625 L 49.050781 -41.640625 L 49.050781 -33.441406 L 40.851562 -33.441406 L 40.851562 -55.605469 L 49.050781 -55.605469 L 49.050781 -47.410156 L 18.6875 -47.410156 L 18.6875 -77.707031 Z M 55.082031 -77.707031 "/></g></g></g><g fill="#841711" fill-opacity="1"><g transform="translate(217.412171, 101.88548)"><g><path d="M 79.441406 -87.976562 L 54.128906 -42.074219 L 46.953125 -46.03125 L 54.128906 -49.992188 L 86.144531 8.066406 L 45.113281 8.066406 L 28.617188 -22.027344 L 35.804688 -25.96875 L 42.992188 -22.027344 L 26.492188 8.066406 L -14.535156 8.066406 L 17.476562 -49.992188 L 24.65625 -46.03125 L 17.476562 -42.074219 L -14.535156 -100.132812 L 26.480469 -100.132812 L 42.984375 -70.1875 L 35.804688 -66.230469 L 28.625 -70.1875 L 38.460938 -88.023438 C 40.617188 -91.796875 43.496094 -94.753906 47.101562 -96.886719 C 50.75 -99.050781 54.722656 -100.132812 59.015625 -100.132812 L 86.144531 -100.132812 Z M 65.085938 -95.894531 L 72.261719 -91.933594 L 72.261719 -83.738281 L 59.015625 -83.738281 C 57.714844 -83.738281 56.53125 -83.421875 55.457031 -82.785156 C 54.339844 -82.121094 53.460938 -81.230469 52.816406 -80.109375 L 35.800781 -49.25 L 14.460938 -87.980469 L 21.640625 -91.933594 L 21.640625 -83.738281 L -0.65625 -83.738281 L -0.65625 -91.933594 L 6.523438 -95.894531 L 34.015625 -46.03125 L 6.523438 3.828125 L -0.65625 -0.132812 L -0.65625 -8.328125 L 21.640625 -8.328125 L 21.640625 -0.132812 L 14.453125 -4.070312 L 35.804688 -43.019531 L 57.15625 -4.070312 L 49.96875 -0.132812 L 49.96875 -8.328125 L 72.261719 -8.328125 L 72.261719 -0.132812 L 65.085938 3.828125 L 37.589844 -46.03125 Z M 65.085938 -95.894531 "/></g></g></g><g fill="#841711" fill-opacity="1"><g transform="translate(292.168792, 101.88548)"><g/></g></g><g fill="#841711" fill-opacity="1"><g transform="translate(6.394264, 235.29521)"><g><path d="M 25.707031 -100 L 75.605469 -100 L 75.605469 -54.359375 L 36.917969 -54.359375 L 36.917969 -69.507812 L 45.113281 -69.507812 L 45.113281 -61.3125 L 25.707031 -61.3125 L 25.707031 -69.507812 L 33.902344 -69.507812 L 33.902344 -55.605469 L 25.707031 -55.605469 L 25.707031 -63.804688 L 75.605469 -63.804688 L 75.605469 -22.296875 C 75.605469 -16.679688 74.214844 -11.539062 71.429688 -6.878906 C 68.714844 -2.328125 65.082031 1.304688 60.53125 4.019531 C 55.871094 6.804688 50.730469 8.195312 45.113281 8.195312 L -4.785156 8.195312 L -4.785156 -36 L 33.902344 -36 L 33.902344 -22.296875 L 25.707031 -22.296875 L 25.707031 -30.492188 L 45.113281 -30.492188 L 45.113281 -22.296875 L 36.917969 -22.296875 L 36.917969 -33.441406 L 45.113281 -33.441406 L 45.113281 -25.246094 L 25.707031 -25.246094 C 20.117188 -25.246094 15 -26.601562 10.355469 -29.316406 C 5.777344 -31.992188 2.121094 -35.617188 -0.609375 -40.191406 C -3.394531 -44.851562 -4.785156 -49.988281 -4.785156 -55.605469 L -4.785156 -69.507812 C -4.785156 -75.125 -3.394531 -80.265625 -0.609375 -84.925781 C 2.105469 -89.472656 5.738281 -93.105469 10.289062 -95.824219 C 14.949219 -98.609375 20.085938 -100 25.707031 -100 Z M 25.707031 -83.605469 C 23.105469 -83.605469 20.765625 -82.988281 18.695312 -81.75 C 16.511719 -80.445312 14.769531 -78.703125 13.464844 -76.519531 C 12.226562 -74.445312 11.605469 -72.109375 11.605469 -69.507812 L 11.605469 -55.605469 C 11.605469 -53.003906 12.226562 -50.667969 13.464844 -48.597656 C 14.753906 -46.4375 16.476562 -44.730469 18.628906 -43.46875 C 20.714844 -42.25 23.074219 -41.640625 25.707031 -41.640625 L 53.3125 -41.640625 L 53.3125 -14.097656 L 17.507812 -14.097656 L 17.507812 -27.804688 L 25.707031 -27.804688 L 25.707031 -19.605469 L 3.410156 -19.605469 L 3.410156 -27.804688 L 11.605469 -27.804688 L 11.605469 0 L 3.410156 0 L 3.410156 -8.195312 L 45.113281 -8.195312 C 47.714844 -8.195312 50.054688 -8.816406 52.125 -10.054688 C 54.308594 -11.359375 56.050781 -13.101562 57.355469 -15.285156 C 58.59375 -17.355469 59.214844 -19.695312 59.214844 -22.296875 L 59.214844 -55.605469 L 67.410156 -55.605469 L 67.410156 -47.410156 L 17.507812 -47.410156 L 17.507812 -77.707031 L 53.3125 -77.707031 L 53.3125 -62.558594 L 45.113281 -62.558594 L 45.113281 -70.753906 L 67.410156 -70.753906 L 67.410156 -62.558594 L 59.214844 -62.558594 L 59.214844 -91.804688 L 67.410156 -91.804688 L 67.410156 -83.605469 Z M 25.707031 -83.605469 "/></g></g></g><g fill="#841711" fill-opacity="1"><g transform="translate(80.75546, 235.29521)"><g><path d="M 45.246094 -100 C 50.863281 -100 56.003906 -98.609375 60.664062 -95.824219 C 65.210938 -93.105469 68.84375 -89.472656 71.5625 -84.925781 C 74.347656 -80.265625 75.738281 -75.125 75.738281 -69.507812 L 75.738281 -22.296875 C 75.738281 -16.679688 74.347656 -11.539062 71.5625 -6.878906 C 68.84375 -2.328125 65.210938 1.304688 60.664062 4.019531 C 56.003906 6.804688 50.863281 8.195312 45.246094 8.195312 L 25.835938 8.195312 C 20.21875 8.195312 15.078125 6.804688 10.417969 4.019531 C 5.871094 1.304688 2.238281 -2.328125 -0.480469 -6.878906 C -3.261719 -11.539062 -4.65625 -16.679688 -4.65625 -22.296875 L -4.65625 -69.507812 C -4.65625 -75.125 -3.261719 -80.265625 -0.480469 -84.925781 C 2.238281 -89.472656 5.871094 -93.105469 10.417969 -95.824219 C 15.078125 -98.609375 20.21875 -100 25.835938 -100 Z M 45.246094 -83.605469 L 25.835938 -83.605469 C 23.234375 -83.605469 20.898438 -82.988281 18.828125 -81.75 C 16.644531 -80.445312 14.898438 -78.703125 13.59375 -76.519531 C 12.355469 -74.445312 11.738281 -72.109375 11.738281 -69.507812 L 11.738281 -22.296875 C 11.738281 -19.695312 12.355469 -17.355469 13.59375 -15.285156 C 14.898438 -13.101562 16.644531 -11.359375 18.828125 -10.054688 C 20.898438 -8.816406 23.234375 -8.195312 25.835938 -8.195312 L 45.246094 -8.195312 C 47.847656 -8.195312 50.183594 -8.816406 52.253906 -10.054688 C 54.441406 -11.359375 56.183594 -13.101562 57.488281 -15.285156 C 58.726562 -17.355469 59.34375 -19.695312 59.34375 -22.296875 L 59.34375 -69.507812 C 59.34375 -72.109375 58.726562 -74.445312 57.488281 -76.519531 C 56.183594 -78.703125 54.441406 -80.445312 52.253906 -81.75 C 50.183594 -82.988281 47.847656 -83.605469 45.246094 -83.605469 Z M 25.835938 -30.492188 L 45.246094 -30.492188 L 45.246094 -22.296875 L 37.050781 -22.296875 L 37.050781 -69.507812 L 45.246094 -69.507812 L 45.246094 -61.3125 L 25.835938 -61.3125 L 25.835938 -69.507812 L 34.03125 -69.507812 L 34.03125 -22.296875 L 25.835938 -22.296875 Z M 17.640625 -14.097656 L 17.640625 -77.707031 L 53.441406 -77.707031 L 53.441406 -14.097656 Z M 17.640625 -14.097656 "/></g></g></g><g fill="#841711" fill-opacity="1"><g transform="translate(154.854348, 235.29521)"><g><path d="M 26.359375 -30.492188 L 67.738281 -30.492188 L 67.738281 8.195312 L -4.132812 8.195312 L -4.132812 -69.507812 C -4.132812 -75.125 -2.738281 -80.265625 0.046875 -84.925781 C 2.761719 -89.472656 6.394531 -93.105469 10.945312 -95.824219 C 15.605469 -98.609375 20.742188 -100 26.359375 -100 L 34.558594 -100 L 34.558594 -22.296875 L 26.359375 -22.296875 Z M 18.164062 -14.097656 L 18.164062 -91.804688 L 26.359375 -91.804688 L 26.359375 -83.605469 C 23.757812 -83.605469 21.421875 -82.988281 19.351562 -81.75 C 17.167969 -80.445312 15.421875 -78.703125 14.117188 -76.519531 C 12.882812 -74.445312 12.261719 -72.109375 12.261719 -69.507812 L 12.261719 0 L 4.066406 0 L 4.066406 -8.195312 L 59.542969 -8.195312 L 59.542969 0 L 51.34375 0 L 51.34375 -22.296875 L 59.542969 -22.296875 L 59.542969 -14.097656 Z M 18.164062 -14.097656 "/></g></g></g><g fill="#841711" fill-opacity="1"><g transform="translate(217.149881, 235.29521)"><g><path d="M 45.769531 -100 L 76.261719 -100 L 76.261719 -22.296875 C 76.261719 -16.679688 74.871094 -11.539062 72.085938 -6.878906 C 69.367188 -2.328125 65.734375 1.304688 61.1875 4.019531 C 56.527344 6.804688 51.386719 8.195312 45.769531 8.195312 L 26.359375 8.195312 C 20.742188 8.195312 15.605469 6.804688 10.945312 4.019531 C 6.394531 1.304688 2.761719 -2.328125 0.046875 -6.878906 C -2.738281 -11.539062 -4.132812 -16.679688 -4.132812 -22.296875 L -4.132812 -100 L 34.558594 -100 L 34.558594 -22.296875 L 26.359375 -22.296875 L 26.359375 -30.492188 L 45.769531 -30.492188 L 45.769531 -22.296875 L 37.574219 -22.296875 L 37.574219 -100 Z M 45.769531 -83.605469 L 45.769531 -91.804688 L 53.96875 -91.804688 L 53.96875 -14.097656 L 18.164062 -14.097656 L 18.164062 -91.804688 L 26.359375 -91.804688 L 26.359375 -83.605469 L 4.066406 -83.605469 L 4.066406 -91.804688 L 12.261719 -91.804688 L 12.261719 -22.296875 C 12.261719 -19.695312 12.882812 -17.355469 14.117188 -15.285156 C 15.421875 -13.101562 17.167969 -11.359375 19.351562 -10.054688 C 21.421875 -8.816406 23.757812 -8.195312 26.359375 -8.195312 L 45.769531 -8.195312 C 48.371094 -8.195312 50.707031 -8.816406 52.78125 -10.054688 C 54.964844 -11.359375 56.707031 -13.101562 58.011719 -15.285156 C 59.25 -17.355469 59.871094 -19.695312 59.871094 -22.296875 L 59.871094 -91.804688 L 68.066406 -91.804688 L 68.066406 -83.605469 Z M 45.769531 -83.605469 "/></g></g></g><g fill="#841711" fill-opacity="1"><g transform="translate(292.297967, 235.29521)"><g><path d="M 58.753906 -61.3125 L 25.835938 -61.3125 L 25.835938 -69.507812 L 34.03125 -69.507812 L 34.03125 -22.296875 L 25.835938 -22.296875 L 25.835938 -30.492188 L 66.953125 -30.492188 L 66.953125 8.195312 L 25.835938 8.195312 C 20.21875 8.195312 15.078125 6.804688 10.417969 4.019531 C 5.871094 1.304688 2.238281 -2.328125 -0.480469 -6.878906 C -3.261719 -11.539062 -4.65625 -16.679688 -4.65625 -22.296875 L -4.65625 -69.507812 C -4.65625 -75.125 -3.261719 -80.265625 -0.480469 -84.925781 C 2.238281 -89.472656 5.871094 -93.105469 10.417969 -95.824219 C 15.078125 -98.609375 20.21875 -100 25.835938 -100 L 66.953125 -100 L 66.953125 -61.3125 Z M 58.753906 -77.707031 L 58.753906 -69.507812 L 50.558594 -69.507812 L 50.558594 -91.804688 L 58.753906 -91.804688 L 58.753906 -83.605469 L 25.835938 -83.605469 C 23.234375 -83.605469 20.898438 -82.988281 18.828125 -81.75 C 16.644531 -80.445312 14.898438 -78.703125 13.59375 -76.519531 C 12.355469 -74.445312 11.738281 -72.109375 11.738281 -69.507812 L 11.738281 -22.296875 C 11.738281 -19.695312 12.355469 -17.355469 13.59375 -15.285156 C 14.898438 -13.101562 16.644531 -11.359375 18.828125 -10.054688 C 20.898438 -8.816406 23.234375 -8.195312 25.835938 -8.195312 L 58.753906 -8.195312 L 58.753906 0 L 50.558594 0 L 50.558594 -22.296875 L 58.753906 -22.296875 L 58.753906 -14.097656 L 17.640625 -14.097656 L 17.640625 -77.707031 Z M 58.753906 -77.707031 "/></g></g></g><g fill="#841711" fill-opacity="1"><g transform="translate(355.904955, 235.29521)"><g><path d="M 18.886719 -100 L 34.820312 -100 L 34.820312 8.195312 L -3.867188 8.195312 L -3.867188 -77.246094 C -3.867188 -81.359375 -2.835938 -85.167969 -0.769531 -88.679688 C 1.261719 -92.132812 4 -94.871094 7.449219 -96.902344 C 10.960938 -98.96875 14.773438 -100 18.886719 -100 Z M 18.886719 -83.605469 C 17.75 -83.605469 16.710938 -83.328125 15.761719 -82.773438 C 14.753906 -82.179688 13.953125 -81.378906 13.359375 -80.371094 C 12.804688 -79.421875 12.523438 -78.382812 12.523438 -77.246094 L 12.523438 0 L 4.328125 0 L 4.328125 -8.195312 L 26.625 -8.195312 L 26.625 0 L 18.425781 0 L 18.425781 -91.804688 L 26.625 -91.804688 L 26.625 -83.605469 Z M 18.886719 -83.605469 "/></g></g></g><g fill="#841711" fill-opacity="1"><g transform="translate(390.134727, 235.29521)"><g><path d="M 45.246094 -100 C 50.863281 -100 56.003906 -98.609375 60.664062 -95.824219 C 65.210938 -93.105469 68.84375 -89.472656 71.5625 -84.925781 C 74.347656 -80.265625 75.738281 -75.125 75.738281 -69.507812 L 75.738281 -22.296875 C 75.738281 -16.679688 74.347656 -11.539062 71.5625 -6.878906 C 68.84375 -2.328125 65.210938 1.304688 60.664062 4.019531 C 56.003906 6.804688 50.863281 8.195312 45.246094 8.195312 L 25.835938 8.195312 C 20.21875 8.195312 15.078125 6.804688 10.417969 4.019531 C 5.871094 1.304688 2.238281 -2.328125 -0.480469 -6.878906 C -3.261719 -11.539062 -4.65625 -16.679688 -4.65625 -22.296875 L -4.65625 -69.507812 C -4.65625 -75.125 -3.261719 -80.265625 -0.480469 -84.925781 C 2.238281 -89.472656 5.871094 -93.105469 10.417969 -95.824219 C 15.078125 -98.609375 20.21875 -100 25.835938 -100 Z M 45.246094 -83.605469 L 25.835938 -83.605469 C 23.234375 -83.605469 20.898438 -82.988281 18.828125 -81.75 C 16.644531 -80.445312 14.898438 -78.703125 13.59375 -76.519531 C 12.355469 -74.445312 11.738281 -72.109375 11.738281 -69.507812 L 11.738281 -22.296875 C 11.738281 -19.695312 12.355469 -17.355469 13.59375 -15.285156 C 14.898438 -13.101562 16.644531 -11.359375 18.828125 -10.054688 C 20.898438 -8.816406 23.234375 -8.195312 25.835938 -8.195312 L 45.246094 -8.195312 C 47.847656 -8.195312 50.183594 -8.816406 52.253906 -10.054688 C 54.441406 -11.359375 56.183594 -13.101562 57.488281 -15.285156 C 58.726562 -17.355469 59.34375 -19.695312 59.34375 -22.296875 L 59.34375 -69.507812 C 59.34375 -72.109375 58.726562 -74.445312 57.488281 -76.519531 C 56.183594 -78.703125 54.441406 -80.445312 52.253906 -81.75 C 50.183594 -82.988281 47.847656 -83.605469 45.246094 -83.605469 Z M 25.835938 -30.492188 L 45.246094 -30.492188 L 45.246094 -22.296875 L 37.050781 -22.296875 L 37.050781 -69.507812 L 45.246094 -69.507812 L 45.246094 -61.3125 L 25.835938 -61.3125 L 25.835938 -69.507812 L 34.03125 -69.507812 L 34.03125 -22.296875 L 25.835938 -22.296875 Z M 17.640625 -14.097656 L 17.640625 -77.707031 L 53.441406 -77.707031 L 53.441406 -14.097656 Z M 17.640625 -14.097656 "/></g></g></g><g fill="#841711" fill-opacity="1"><g transform="translate(464.233631, 235.29521)"><g><path d="M 46.296875 -100 L 76.789062 -100 L 76.789062 8.195312 L 41.007812 8.195312 L 19.417969 -39.503906 L 26.886719 -42.886719 L 35.082031 -42.886719 L 35.082031 8.195312 L -3.605469 8.195312 L -3.605469 -100 L 4.589844 -100 C 13.023438 -100 20.757812 -97.726562 27.792969 -93.179688 C 34.816406 -88.640625 40.058594 -82.585938 43.519531 -75.015625 L 53.769531 -52.289062 L 46.296875 -48.917969 L 38.097656 -48.917969 L 38.097656 -100 Z M 46.296875 -83.605469 L 46.296875 -91.804688 L 54.492188 -91.804688 L 54.492188 -48.917969 L 38.824219 -45.550781 L 28.609375 -68.199219 C 26.476562 -72.867188 23.238281 -76.605469 18.894531 -79.410156 C 14.566406 -82.207031 9.796875 -83.605469 4.589844 -83.605469 L 4.589844 -91.804688 L 12.785156 -91.804688 L 12.785156 0 L 4.589844 0 L 4.589844 -8.195312 L 26.886719 -8.195312 L 26.886719 0 L 18.6875 0 L 18.6875 -42.886719 L 34.351562 -46.265625 L 53.761719 -3.378906 L 46.296875 0 L 46.296875 -8.195312 L 68.589844 -8.195312 L 68.589844 0 L 60.394531 0 L 60.394531 -91.804688 L 68.589844 -91.804688 L 68.589844 -83.605469 Z M 46.296875 -83.605469 "/></g></g></g><g fill="#841711" fill-opacity="1"><g transform="translate(540.430864, 235.29521)"><g><path d="M 55.082031 -61.3125 L 26.886719 -61.3125 L 26.886719 -69.507812 L 35.082031 -69.507812 L 35.082031 -55.605469 L 26.886719 -55.605469 L 26.886719 -63.804688 L 57.246094 -63.804688 L 57.246094 -25.246094 L 26.886719 -25.246094 L 26.886719 -33.441406 L 35.082031 -33.441406 L 35.082031 -22.296875 L 26.886719 -22.296875 L 26.886719 -30.492188 L 76.789062 -30.492188 L 76.789062 8.195312 L -3.605469 8.195312 L -3.605469 -100 L 76.789062 -100 L 76.789062 -83.015625 C 76.789062 -77.109375 74.691406 -72.023438 70.5 -67.761719 C 66.269531 -63.460938 61.132812 -61.3125 55.082031 -61.3125 Z M 55.082031 -77.707031 C 56.550781 -77.707031 57.796875 -78.222656 58.8125 -79.257812 C 59.867188 -80.328125 60.394531 -81.582031 60.394531 -83.015625 L 60.394531 -91.804688 L 68.589844 -91.804688 L 68.589844 -83.605469 L 4.589844 -83.605469 L 4.589844 -91.804688 L 12.785156 -91.804688 L 12.785156 0 L 4.589844 0 L 4.589844 -8.195312 L 68.589844 -8.195312 L 68.589844 0 L 60.394531 0 L 60.394531 -22.296875 L 68.589844 -22.296875 L 68.589844 -14.097656 L 18.6875 -14.097656 L 18.6875 -41.640625 L 49.050781 -41.640625 L 49.050781 -33.441406 L 40.851562 -33.441406 L 40.851562 -55.605469 L 49.050781 -55.605469 L 49.050781 -47.410156 L 18.6875 -47.410156 L 18.6875 -77.707031 Z M 55.082031 -77.707031 "/></g></g></g><g fill="#841711" fill-opacity="1"><g transform="translate(613.480605, 235.29521)"><g><path d="M 25.707031 -100 L 75.605469 -100 L 75.605469 -54.359375 L 36.917969 -54.359375 L 36.917969 -69.507812 L 45.113281 -69.507812 L 45.113281 -61.3125 L 25.707031 -61.3125 L 25.707031 -69.507812 L 33.902344 -69.507812 L 33.902344 -55.605469 L 25.707031 -55.605469 L 25.707031 -63.804688 L 75.605469 -63.804688 L 75.605469 -22.296875 C 75.605469 -16.679688 74.214844 -11.539062 71.429688 -6.878906 C 68.714844 -2.328125 65.082031 1.304688 60.53125 4.019531 C 55.871094 6.804688 50.730469 8.195312 45.113281 8.195312 L -4.785156 8.195312 L -4.785156 -36 L 33.902344 -36 L 33.902344 -22.296875 L 25.707031 -22.296875 L 25.707031 -30.492188 L 45.113281 -30.492188 L 45.113281 -22.296875 L 36.917969 -22.296875 L 36.917969 -33.441406 L 45.113281 -33.441406 L 45.113281 -25.246094 L 25.707031 -25.246094 C 20.117188 -25.246094 15 -26.601562 10.355469 -29.316406 C 5.777344 -31.992188 2.121094 -35.617188 -0.609375 -40.191406 C -3.394531 -44.851562 -4.785156 -49.988281 -4.785156 -55.605469 L -4.785156 -69.507812 C -4.785156 -75.125 -3.394531 -80.265625 -0.609375 -84.925781 C 2.105469 -89.472656 5.738281 -93.105469 10.289062 -95.824219 C 14.949219 -98.609375 20.085938 -100 25.707031 -100 Z M 25.707031 -83.605469 C 23.105469 -83.605469 20.765625 -82.988281 18.695312 -81.75 C 16.511719 -80.445312 14.769531 -78.703125 13.464844 -76.519531 C 12.226562 -74.445312 11.605469 -72.109375 11.605469 -69.507812 L 11.605469 -55.605469 C 11.605469 -53.003906 12.226562 -50.667969 13.464844 -48.597656 C 14.753906 -46.4375 16.476562 -44.730469 18.628906 -43.46875 C 20.714844 -42.25 23.074219 -41.640625 25.707031 -41.640625 L 53.3125 -41.640625 L 53.3125 -14.097656 L 17.507812 -14.097656 L 17.507812 -27.804688 L 25.707031 -27.804688 L 25.707031 -19.605469 L 3.410156 -19.605469 L 3.410156 -27.804688 L 11.605469 -27.804688 L 11.605469 0 L 3.410156 0 L 3.410156 -8.195312 L 45.113281 -8.195312 C 47.714844 -8.195312 50.054688 -8.816406 52.125 -10.054688 C 54.308594 -11.359375 56.050781 -13.101562 57.355469 -15.285156 C 58.59375 -17.355469 59.214844 -19.695312 59.214844 -22.296875 L 59.214844 -55.605469 L 67.410156 -55.605469 L 67.410156 -47.410156 L 17.507812 -47.410156 L 17.507812 -77.707031 L 53.3125 -77.707031 L 53.3125 -62.558594 L 45.113281 -62.558594 L 45.113281 -70.753906 L 67.410156 -70.753906 L 67.410156 -62.558594 L 59.214844 -62.558594 L 59.214844 -91.804688 L 67.410156 -91.804688 L 67.410156 -83.605469 Z M 25.707031 -83.605469 "/></g></g></g><g fill="#f2c858" fill-opacity="1"><g transform="translate(6.394264, 101.88548)"><g><path d="M 46.296875 -91.8125 C 50.410156 -91.8125 54.148438 -90.804688 57.515625 -88.796875 C 60.878906 -86.785156 63.566406 -84.09375 65.578125 -80.71875 C 67.585938 -77.351562 68.59375 -73.617188 68.59375 -69.515625 L 68.59375 0 L 46.296875 0 L 46.296875 -33.4375 L 26.890625 -33.4375 L 26.890625 0 L 4.59375 0 L 4.59375 -91.8125 Z M 26.890625 -55.609375 L 46.296875 -55.609375 L 46.296875 -69.515625 L 26.890625 -69.515625 Z M 26.890625 -55.609375 "/></g></g></g><g fill="#f2c858" fill-opacity="1"><g transform="translate(82.066932, 101.88548)"><g><path d="M 26.359375 -22.296875 L 59.546875 -22.296875 L 59.546875 0 L 4.0625 0 L 4.0625 -69.515625 C 4.0625 -73.617188 5.066406 -77.351562 7.078125 -80.71875 C 9.085938 -84.09375 11.773438 -86.785156 15.140625 -88.796875 C 18.515625 -90.804688 22.253906 -91.8125 26.359375 -91.8125 Z M 26.359375 -22.296875 "/></g></g></g><g fill="#f2c858" fill-opacity="1"><g transform="translate(144.362465, 101.88548)"><g><path d="M 55.078125 -69.515625 L 26.890625 -69.515625 L 26.890625 -55.609375 L 49.046875 -55.609375 L 49.046875 -33.4375 L 26.890625 -33.4375 L 26.890625 -22.296875 L 68.59375 -22.296875 L 68.59375 0 L 4.59375 0 L 4.59375 -91.8125 L 68.59375 -91.8125 L 68.59375 -83.015625 C 68.59375 -79.347656 67.28125 -76.179688 64.65625 -73.515625 C 62.03125 -70.847656 58.835938 -69.515625 55.078125 -69.515625 Z M 55.078125 -69.515625 "/></g></g></g><g fill="#f2c858" fill-opacity="1"><g transform="translate(217.412171, 101.88548)"><g><path d="M 72.265625 -91.9375 L 46.953125 -46.03125 L 72.265625 -0.125 L 49.96875 -0.125 L 35.8125 -25.96875 L 21.640625 -0.125 L -0.65625 -0.125 L 24.65625 -46.03125 L -0.65625 -91.9375 L 21.640625 -91.9375 L 35.8125 -66.234375 L 45.640625 -84.078125 C 47.035156 -86.523438 48.914062 -88.445312 51.28125 -89.84375 C 53.644531 -91.238281 56.222656 -91.9375 59.015625 -91.9375 Z M 72.265625 -91.9375 "/></g></g></g><g fill="#f2c858" fill-opacity="1"><g transform="translate(292.168792, 101.88548)"><g/></g></g><g fill="#f2c858" fill-opacity="1"><g transform="translate(6.394264, 235.29521)"><g><path d="M 25.703125 -91.8125 L 67.421875 -91.8125 L 67.421875 -62.5625 L 45.125 -62.5625 L 45.125 -69.515625 L 25.703125 -69.515625 L 25.703125 -55.609375 L 67.421875 -55.609375 L 67.421875 -22.296875 C 67.421875 -18.179688 66.410156 -14.441406 64.390625 -11.078125 C 62.378906 -7.710938 59.691406 -5.023438 56.328125 -3.015625 C 52.960938 -1.003906 49.226562 0 45.125 0 L 3.40625 0 L 3.40625 -27.8125 L 25.703125 -27.8125 L 25.703125 -22.296875 L 45.125 -22.296875 L 45.125 -33.4375 L 25.703125 -33.4375 C 21.597656 -33.4375 17.859375 -34.421875 14.484375 -36.390625 C 11.117188 -38.359375 8.429688 -41.023438 6.421875 -44.390625 C 4.410156 -47.765625 3.40625 -51.503906 3.40625 -55.609375 L 3.40625 -69.515625 C 3.40625 -73.617188 4.410156 -77.351562 6.421875 -80.71875 C 8.429688 -84.09375 11.117188 -86.785156 14.484375 -88.796875 C 17.859375 -90.804688 21.597656 -91.8125 25.703125 -91.8125 Z M 25.703125 -91.8125 "/></g></g></g><g fill="#f2c858" fill-opacity="1"><g transform="translate(80.75546, 235.29521)"><g><path d="M 45.25 -91.8125 C 49.351562 -91.8125 53.085938 -90.804688 56.453125 -88.796875 C 59.828125 -86.785156 62.519531 -84.09375 64.53125 -80.71875 C 66.539062 -77.351562 67.546875 -73.617188 67.546875 -69.515625 L 67.546875 -22.296875 C 67.546875 -18.179688 66.539062 -14.441406 64.53125 -11.078125 C 62.519531 -7.710938 59.828125 -5.023438 56.453125 -3.015625 C 53.085938 -1.003906 49.351562 0 45.25 0 L 25.84375 0 C 21.726562 0 17.988281 -1.003906 14.625 -3.015625 C 11.257812 -5.023438 8.570312 -7.710938 6.5625 -11.078125 C 4.550781 -14.441406 3.546875 -18.179688 3.546875 -22.296875 L 3.546875 -69.515625 C 3.546875 -73.617188 4.550781 -77.351562 6.5625 -80.71875 C 8.570312 -84.09375 11.257812 -86.785156 14.625 -88.796875 C 17.988281 -90.804688 21.726562 -91.8125 25.84375 -91.8125 Z M 25.84375 -22.296875 L 45.25 -22.296875 L 45.25 -69.515625 L 25.84375 -69.515625 Z M 25.84375 -22.296875 "/></g></g></g><g fill="#f2c858" fill-opacity="1"><g transform="translate(154.854348, 235.29521)"><g><path d="M 26.359375 -22.296875 L 59.546875 -22.296875 L 59.546875 0 L 4.0625 0 L 4.0625 -69.515625 C 4.0625 -73.617188 5.066406 -77.351562 7.078125 -80.71875 C 9.085938 -84.09375 11.773438 -86.785156 15.140625 -88.796875 C 18.515625 -90.804688 22.253906 -91.8125 26.359375 -91.8125 Z M 26.359375 -22.296875 "/></g></g></g><g fill="#f2c858" fill-opacity="1"><g transform="translate(217.149881, 235.29521)"><g><path d="M 45.78125 -91.8125 L 68.0625 -91.8125 L 68.0625 -22.296875 C 68.0625 -18.179688 67.054688 -14.441406 65.046875 -11.078125 C 63.035156 -7.710938 60.347656 -5.023438 56.984375 -3.015625 C 53.617188 -1.003906 49.882812 0 45.78125 0 L 26.359375 0 C 22.253906 0 18.515625 -1.003906 15.140625 -3.015625 C 11.773438 -5.023438 9.085938 -7.710938 7.078125 -11.078125 C 5.066406 -14.441406 4.0625 -18.179688 4.0625 -22.296875 L 4.0625 -91.8125 L 26.359375 -91.8125 L 26.359375 -22.296875 L 45.78125 -22.296875 Z M 45.78125 -91.8125 "/></g></g></g><g fill="#f2c858" fill-opacity="1"><g transform="translate(292.297967, 235.29521)"><g><path d="M 58.765625 -69.515625 L 25.84375 -69.515625 L 25.84375 -22.296875 L 58.765625 -22.296875 L 58.765625 0 L 25.84375 0 C 21.726562 0 17.988281 -1.003906 14.625 -3.015625 C 11.257812 -5.023438 8.570312 -7.710938 6.5625 -11.078125 C 4.550781 -14.441406 3.546875 -18.179688 3.546875 -22.296875 L 3.546875 -69.515625 C 3.546875 -73.617188 4.550781 -77.351562 6.5625 -80.71875 C 8.570312 -84.09375 11.257812 -86.785156 14.625 -88.796875 C 17.988281 -90.804688 21.726562 -91.8125 25.84375 -91.8125 L 58.765625 -91.8125 Z M 58.765625 -69.515625 "/></g></g></g><g fill="#f2c858" fill-opacity="1"><g transform="translate(355.904955, 235.29521)"><g><path d="M 18.890625 -91.8125 L 26.625 -91.8125 L 26.625 0 L 4.328125 0 L 4.328125 -77.25 C 4.328125 -79.875 4.984375 -82.300781 6.296875 -84.53125 C 7.609375 -86.757812 9.378906 -88.53125 11.609375 -89.84375 C 13.835938 -91.15625 16.265625 -91.8125 18.890625 -91.8125 Z M 18.890625 -91.8125 "/></g></g></g><g fill="#f2c858" fill-opacity="1"><g transform="translate(390.134727, 235.29521)"><g><path d="M 45.25 -91.8125 C 49.351562 -91.8125 53.085938 -90.804688 56.453125 -88.796875 C 59.828125 -86.785156 62.519531 -84.09375 64.53125 -80.71875 C 66.539062 -77.351562 67.546875 -73.617188 67.546875 -69.515625 L 67.546875 -22.296875 C 67.546875 -18.179688 66.539062 -14.441406 64.53125 -11.078125 C 62.519531 -7.710938 59.828125 -5.023438 56.453125 -3.015625 C 53.085938 -1.003906 49.351562 0 45.25 0 L 25.84375 0 C 21.726562 0 17.988281 -1.003906 14.625 -3.015625 C 11.257812 -5.023438 8.570312 -7.710938 6.5625 -11.078125 C 4.550781 -14.441406 3.546875 -18.179688 3.546875 -22.296875 L 3.546875 -69.515625 C 3.546875 -73.617188 4.550781 -77.351562 6.5625 -80.71875 C 8.570312 -84.09375 11.257812 -86.785156 14.625 -88.796875 C 17.988281 -90.804688 21.726562 -91.8125 25.84375 -91.8125 Z M 25.84375 -22.296875 L 45.25 -22.296875 L 45.25 -69.515625 L 25.84375 -69.515625 Z M 25.84375 -22.296875 "/></g></g></g><g fill="#f2c858" fill-opacity="1"><g transform="translate(464.233631, 235.29521)"><g><path d="M 46.296875 -91.8125 L 68.59375 -91.8125 L 68.59375 0 L 46.296875 0 L 26.890625 -42.890625 L 26.890625 0 L 4.59375 0 L 4.59375 -91.8125 C 11.414062 -91.8125 17.664062 -89.972656 23.34375 -86.296875 C 29.03125 -82.628906 33.269531 -77.734375 36.0625 -71.609375 L 46.296875 -48.921875 Z M 46.296875 -91.8125 "/></g></g></g><g fill="#f2c858" fill-opacity="1"><g transform="translate(540.430864, 235.29521)"><g><path d="M 55.078125 -69.515625 L 26.890625 -69.515625 L 26.890625 -55.609375 L 49.046875 -55.609375 L 49.046875 -33.4375 L 26.890625 -33.4375 L 26.890625 -22.296875 L 68.59375 -22.296875 L 68.59375 0 L 4.59375 0 L 4.59375 -91.8125 L 68.59375 -91.8125 L 68.59375 -83.015625 C 68.59375 -79.347656 67.28125 -76.179688 64.65625 -73.515625 C 62.03125 -70.847656 58.835938 -69.515625 55.078125 -69.515625 Z M 55.078125 -69.515625 "/></g></g></g><g fill="#f2c858" fill-opacity="1"><g transform="translate(613.480605, 235.29521)"><g><path d="M 25.703125 -91.8125 L 67.421875 -91.8125 L 67.421875 -62.5625 L 45.125 -62.5625 L 45.125 -69.515625 L 25.703125 -69.515625 L 25.703125 -55.609375 L 67.421875 -55.609375 L 67.421875 -22.296875 C 67.421875 -18.179688 66.410156 -14.441406 64.390625 -11.078125 C 62.378906 -7.710938 59.691406 -5.023438 56.328125 -3.015625 C 52.960938 -1.003906 49.226562 0 45.125 0 L 3.40625 0 L 3.40625 -27.8125 L 25.703125 -27.8125 L 25.703125 -22.296875 L 45.125 -22.296875 L 45.125 -33.4375 L 25.703125 -33.4375 C 21.597656 -33.4375 17.859375 -34.421875 14.484375 -36.390625 C 11.117188 -38.359375 8.429688 -41.023438 6.421875 -44.390625 C 4.410156 -47.765625 3.40625 -51.503906 3.40625 -55.609375 L 3.40625 -69.515625 C 3.40625 -73.617188 4.410156 -77.351562 6.421875 -80.71875 C 8.429688 -84.09375 11.117188 -86.785156 14.484375 -88.796875 C 17.859375 -90.804688 21.597656 -91.8125 25.703125 -91.8125 Z M 25.703125 -91.8125 "/></g></g></g></g></g><g transform="matrix(1, 0, 0, 1, 429, 303)"><g clip-path="url(#6fe8a63f61)"><g fill="#2b2b2b" fill-opacity="1"><g transform="translate(0.394264, 75.693049)"><g><path d="M 16.5625 1.03125 C 14.28125 1.03125 11.859375 0.742188 9.296875 0.171875 C 6.742188 -0.398438 4.738281 -1.164062 3.28125 -2.125 L 3.28125 -8 C 5.0625 -6.957031 7.113281 -6.101562 9.4375 -5.4375 C 11.769531 -4.78125 14.03125 -4.453125 16.21875 -4.453125 C 18.675781 -4.453125 20.472656 -4.742188 21.609375 -5.328125 C 22.753906 -5.921875 23.328125 -6.878906 23.328125 -8.203125 C 23.328125 -9.210938 23.066406 -10.023438 22.546875 -10.640625 C 22.023438 -11.253906 21.132812 -11.8125 19.875 -12.3125 C 18.625 -12.8125 16.742188 -13.40625 14.234375 -14.09375 C 11.535156 -14.875 9.398438 -15.660156 7.828125 -16.453125 C 6.253906 -17.253906 5.066406 -18.269531 4.265625 -19.5 C 3.472656 -20.726562 3.078125 -22.328125 3.078125 -24.296875 C 3.078125 -27.441406 4.316406 -29.820312 6.796875 -31.4375 C 9.285156 -33.0625 12.628906 -33.875 16.828125 -33.875 C 19.015625 -33.875 21.15625 -33.664062 23.25 -33.25 C 25.351562 -32.84375 27.046875 -32.273438 28.328125 -31.546875 L 28.328125 -25.796875 C 27.003906 -26.566406 25.375 -27.179688 23.4375 -27.640625 C 21.5 -28.097656 19.523438 -28.328125 17.515625 -28.328125 C 15.097656 -28.328125 13.25 -28.03125 11.96875 -27.4375 C 10.695312 -26.84375 10.0625 -25.796875 10.0625 -24.296875 C 10.0625 -23.335938 10.332031 -22.5625 10.875 -21.96875 C 11.425781 -21.375 12.304688 -20.859375 13.515625 -20.421875 C 14.722656 -19.992188 16.648438 -19.4375 19.296875 -18.75 C 23.441406 -17.601562 26.320312 -16.253906 27.9375 -14.703125 C 29.5625 -13.160156 30.375 -11.019531 30.375 -8.28125 C 30.375 -5.445312 29.210938 -3.1875 26.890625 -1.5 C 24.566406 0.1875 21.125 1.03125 16.5625 1.03125 Z M 16.5625 1.03125 "/></g></g></g><g fill="#2b2b2b" fill-opacity="1"><g transform="translate(32.824503, 75.693049)"><g><path d="M 22.515625 1.03125 C 16.441406 1.03125 11.679688 -0.484375 8.234375 -3.515625 C 4.796875 -6.554688 3.078125 -10.835938 3.078125 -16.359375 C 3.078125 -21.734375 4.613281 -25.992188 7.6875 -29.140625 C 10.769531 -32.296875 15.164062 -33.875 20.875 -33.875 C 24.65625 -33.875 27.867188 -33.15625 30.515625 -31.71875 C 33.160156 -30.28125 35.15625 -28.296875 36.5 -25.765625 C 37.84375 -23.234375 38.515625 -20.347656 38.515625 -17.109375 L 38.515625 -13.6875 L 9.640625 -13.6875 C 9.867188 -10.582031 11.179688 -8.265625 13.578125 -6.734375 C 15.972656 -5.210938 19.222656 -4.453125 23.328125 -4.453125 C 25.429688 -4.453125 27.550781 -4.644531 29.6875 -5.03125 C 31.832031 -5.414062 33.726562 -5.925781 35.375 -6.5625 L 35.375 -1.03125 C 33.914062 -0.4375 31.988281 0.0507812 29.59375 0.4375 C 27.195312 0.832031 24.835938 1.03125 22.515625 1.03125 Z M 32.015625 -18.546875 C 31.929688 -21.640625 30.914062 -24.039062 28.96875 -25.75 C 27.03125 -27.46875 24.285156 -28.328125 20.734375 -28.328125 C 17.265625 -28.328125 14.570312 -27.4375 12.65625 -25.65625 C 10.738281 -23.875 9.734375 -21.503906 9.640625 -18.546875 Z M 32.015625 -18.546875 "/></g></g></g><g fill="#2b2b2b" fill-opacity="1"><g transform="translate(73.396545, 75.693049)"><g><path d="M 4.453125 -32.84375 L 11.15625 -32.84375 L 11.15625 -26.953125 C 12.519531 -28.960938 14.441406 -30.445312 16.921875 -31.40625 C 19.410156 -32.363281 22.300781 -32.84375 25.59375 -32.84375 L 25.59375 -27.4375 C 22.082031 -27.4375 19.070312 -26.863281 16.5625 -25.71875 C 14.050781 -24.582031 12.316406 -22.785156 11.359375 -20.328125 L 11.359375 0 L 4.453125 0 Z M 4.453125 -32.84375 "/></g></g></g><g fill="#2b2b2b" fill-opacity="1"><g transform="translate(99.669121, 75.693049)"><g><path d="M 3.078125 -32.84375 L 10.40625 -32.84375 L 20.046875 -9.234375 L 29.6875 -32.84375 L 37.015625 -32.84375 L 23.0625 0 L 17.03125 0 Z M 3.078125 -32.84375 "/></g></g></g><g fill="#2b2b2b" fill-opacity="1"><g transform="translate(138.735958, 75.693049)"><g><path d="M 8.484375 -39.28125 C 7.347656 -39.28125 6.390625 -39.664062 5.609375 -40.4375 C 4.835938 -41.207031 4.453125 -42.164062 4.453125 -43.3125 C 4.453125 -44.445312 4.835938 -45.398438 5.609375 -46.171875 C 6.390625 -46.953125 7.347656 -47.34375 8.484375 -47.34375 C 9.671875 -47.34375 10.660156 -46.953125 11.453125 -46.171875 C 12.253906 -45.398438 12.65625 -44.445312 12.65625 -43.3125 C 12.65625 -42.164062 12.253906 -41.207031 11.453125 -40.4375 C 10.660156 -39.664062 9.671875 -39.28125 8.484375 -39.28125 Z M 5 -32.84375 L 12.046875 -32.84375 L 12.046875 0 L 5 0 Z M 5 -32.84375 "/></g></g></g><g fill="#2b2b2b" fill-opacity="1"><g transform="translate(154.814187, 75.693049)"><g><path d="M 21.765625 1.03125 C 18.109375 1.03125 14.863281 0.347656 12.03125 -1.015625 C 9.207031 -2.390625 7.007812 -4.390625 5.4375 -7.015625 C 3.863281 -9.640625 3.078125 -12.753906 3.078125 -16.359375 C 3.078125 -19.960938 3.863281 -23.070312 5.4375 -25.6875 C 7.007812 -28.3125 9.222656 -30.332031 12.078125 -31.75 C 14.929688 -33.164062 18.203125 -33.875 21.890625 -33.875 C 26.910156 -33.875 30.925781 -32.890625 33.9375 -30.921875 L 33.9375 -25.25 C 30.96875 -27.300781 27.179688 -28.328125 22.578125 -28.328125 C 18.835938 -28.328125 15.816406 -27.3125 13.515625 -25.28125 C 11.210938 -23.25 10.0625 -20.273438 10.0625 -16.359375 C 10.0625 -12.429688 11.203125 -9.460938 13.484375 -7.453125 C 15.765625 -5.453125 18.75 -4.453125 22.4375 -4.453125 C 27.050781 -4.453125 31.019531 -5.546875 34.34375 -7.734375 L 34.34375 -2.125 C 32.75 -1.03125 30.9375 -0.234375 28.90625 0.265625 C 26.875 0.773438 24.492188 1.03125 21.765625 1.03125 Z M 21.765625 1.03125 "/></g></g></g><g fill="#2b2b2b" fill-opacity="1"><g transform="translate(191.212691, 75.693049)"><g><path d="M 8.484375 -39.28125 C 7.347656 -39.28125 6.390625 -39.664062 5.609375 -40.4375 C 4.835938 -41.207031 4.453125 -42.164062 4.453125 -43.3125 C 4.453125 -44.445312 4.835938 -45.398438 5.609375 -46.171875 C 6.390625 -46.953125 7.347656 -47.34375 8.484375 -47.34375 C 9.671875 -47.34375 10.660156 -46.953125 11.453125 -46.171875 C 12.253906 -45.398438 12.65625 -44.445312 12.65625 -43.3125 C 12.65625 -42.164062 12.253906 -41.207031 11.453125 -40.4375 C 10.660156 -39.664062 9.671875 -39.28125 8.484375 -39.28125 Z M 5 -32.84375 L 12.046875 -32.84375 L 12.046875 0 L 5 0 Z M 5 -32.84375 "/></g></g></g><g fill="#2b2b2b" fill-opacity="1"><g transform="translate(207.29092, 75.693049)"><g><path d="M 21.765625 1.03125 C 18.066406 1.03125 14.8125 0.335938 12 -1.046875 C 9.195312 -2.441406 7.007812 -4.453125 5.4375 -7.078125 C 3.863281 -9.703125 3.078125 -12.796875 3.078125 -16.359375 C 3.078125 -19.867188 3.851562 -22.945312 5.40625 -25.59375 C 6.957031 -28.238281 9.144531 -30.28125 11.96875 -31.71875 C 14.800781 -33.15625 18.066406 -33.875 21.765625 -33.875 C 25.453125 -33.875 28.707031 -33.15625 31.53125 -31.71875 C 34.363281 -30.28125 36.566406 -28.238281 38.140625 -25.59375 C 39.710938 -22.945312 40.5 -19.867188 40.5 -16.359375 C 40.5 -12.796875 39.710938 -9.703125 38.140625 -7.078125 C 36.566406 -4.453125 34.363281 -2.441406 31.53125 -1.046875 C 28.707031 0.335938 25.453125 1.03125 21.765625 1.03125 Z M 21.765625 -4.453125 C 25.316406 -4.453125 28.140625 -5.546875 30.234375 -7.734375 C 32.335938 -9.921875 33.390625 -12.796875 33.390625 -16.359375 C 33.390625 -20.046875 32.335938 -22.960938 30.234375 -25.109375 C 28.140625 -27.253906 25.316406 -28.328125 21.765625 -28.328125 C 18.203125 -28.328125 15.367188 -27.253906 13.265625 -25.109375 C 11.171875 -22.960938 10.125 -20.046875 10.125 -16.359375 C 10.125 -12.796875 11.171875 -9.921875 13.265625 -7.734375 C 15.367188 -5.546875 18.203125 -4.453125 21.765625 -4.453125 Z M 21.765625 -4.453125 "/></g></g></g><g fill="#2b2b2b" fill-opacity="1"><g transform="translate(249.847086, 75.693049)"><g><path d="M 16.5625 1.03125 C 14.28125 1.03125 11.859375 0.742188 9.296875 0.171875 C 6.742188 -0.398438 4.738281 -1.164062 3.28125 -2.125 L 3.28125 -8 C 5.0625 -6.957031 7.113281 -6.101562 9.4375 -5.4375 C 11.769531 -4.78125 14.03125 -4.453125 16.21875 -4.453125 C 18.675781 -4.453125 20.472656 -4.742188 21.609375 -5.328125 C 22.753906 -5.921875 23.328125 -6.878906 23.328125 -8.203125 C 23.328125 -9.210938 23.066406 -10.023438 22.546875 -10.640625 C 22.023438 -11.253906 21.132812 -11.8125 19.875 -12.3125 C 18.625 -12.8125 16.742188 -13.40625 14.234375 -14.09375 C 11.535156 -14.875 9.398438 -15.660156 7.828125 -16.453125 C 6.253906 -17.253906 5.066406 -18.269531 4.265625 -19.5 C 3.472656 -20.726562 3.078125 -22.328125 3.078125 -24.296875 C 3.078125 -27.441406 4.316406 -29.820312 6.796875 -31.4375 C 9.285156 -33.0625 12.628906 -33.875 16.828125 -33.875 C 19.015625 -33.875 21.15625 -33.664062 23.25 -33.25 C 25.351562 -32.84375 27.046875 -32.273438 28.328125 -31.546875 L 28.328125 -25.796875 C 27.003906 -26.566406 25.375 -27.179688 23.4375 -27.640625 C 21.5 -28.097656 19.523438 -28.328125 17.515625 -28.328125 C 15.097656 -28.328125 13.25 -28.03125 11.96875 -27.4375 C 10.695312 -26.84375 10.0625 -25.796875 10.0625 -24.296875 C 10.0625 -23.335938 10.332031 -22.5625 10.875 -21.96875 C 11.425781 -21.375 12.304688 -20.859375 13.515625 -20.421875 C 14.722656 -19.992188 16.648438 -19.4375 19.296875 -18.75 C 23.441406 -17.601562 26.320312 -16.253906 27.9375 -14.703125 C 29.5625 -13.160156 30.375 -11.019531 30.375 -8.28125 C 30.375 -5.445312 29.210938 -3.1875 26.890625 -1.5 C 24.566406 0.1875 21.125 1.03125 16.5625 1.03125 Z M 16.5625 1.03125 "/></g></g></g><g fill="#2b2b2b" fill-opacity="1"><g transform="translate(282.277325, 75.693049)"><g/></g></g><g fill="#2b2b2b" fill-opacity="1"><g transform="translate(306.565794, 75.693049)"><g><path d="M 21.625 15.734375 C 19.382812 15.734375 17.203125 15.550781 15.078125 15.1875 C 12.960938 14.820312 11.175781 14.296875 9.71875 13.609375 L 9.71875 7.9375 C 13.132812 9.488281 17.101562 10.265625 21.625 10.265625 C 25.863281 10.265625 28.953125 9.335938 30.890625 7.484375 C 32.828125 5.640625 33.796875 2.847656 33.796875 -0.890625 L 33.796875 -4.375 C 30.785156 -0.769531 26.363281 1.03125 20.53125 1.03125 C 17.195312 1.03125 14.207031 0.300781 11.5625 -1.15625 C 8.914062 -2.625 6.835938 -4.679688 5.328125 -7.328125 C 3.828125 -9.972656 3.078125 -13.003906 3.078125 -16.421875 C 3.078125 -19.890625 3.816406 -22.929688 5.296875 -25.546875 C 6.785156 -28.171875 8.835938 -30.210938 11.453125 -31.671875 C 14.078125 -33.140625 17.035156 -33.875 20.328125 -33.875 C 23.378906 -33.875 25.960938 -33.425781 28.078125 -32.53125 C 30.203125 -31.644531 32.175781 -30.175781 34 -28.125 L 34 -32.84375 L 40.71875 -32.84375 L 40.71875 -1.640625 C 40.71875 3.972656 39.15625 8.269531 36.03125 11.25 C 32.90625 14.238281 28.101562 15.734375 21.625 15.734375 Z M 21.890625 -4.453125 C 24.722656 -4.453125 27.222656 -5.203125 29.390625 -6.703125 C 31.554688 -8.210938 33.023438 -10.21875 33.796875 -12.71875 L 33.796875 -20.109375 C 32.929688 -22.671875 31.4375 -24.679688 29.3125 -26.140625 C 27.195312 -27.597656 24.722656 -28.328125 21.890625 -28.328125 C 19.660156 -28.328125 17.644531 -27.835938 15.84375 -26.859375 C 14.039062 -25.878906 12.625 -24.472656 11.59375 -22.640625 C 10.570312 -20.816406 10.0625 -18.742188 10.0625 -16.421875 C 10.0625 -14.046875 10.570312 -11.957031 11.59375 -10.15625 C 12.625 -8.351562 14.039062 -6.953125 15.84375 -5.953125 C 17.644531 -4.953125 19.660156 -4.453125 21.890625 -4.453125 Z M 21.890625 -4.453125 "/></g></g></g><g fill="#2b2b2b" fill-opacity="1"><g transform="translate(350.695551, 75.693049)"><g><path d="M 22.515625 1.03125 C 16.441406 1.03125 11.679688 -0.484375 8.234375 -3.515625 C 4.796875 -6.554688 3.078125 -10.835938 3.078125 -16.359375 C 3.078125 -21.734375 4.613281 -25.992188 7.6875 -29.140625 C 10.769531 -32.296875 15.164062 -33.875 20.875 -33.875 C 24.65625 -33.875 27.867188 -33.15625 30.515625 -31.71875 C 33.160156 -30.28125 35.15625 -28.296875 36.5 -25.765625 C 37.84375 -23.234375 38.515625 -20.347656 38.515625 -17.109375 L 38.515625 -13.6875 L 9.640625 -13.6875 C 9.867188 -10.582031 11.179688 -8.265625 13.578125 -6.734375 C 15.972656 -5.210938 19.222656 -4.453125 23.328125 -4.453125 C 25.429688 -4.453125 27.550781 -4.644531 29.6875 -5.03125 C 31.832031 -5.414062 33.726562 -5.925781 35.375 -6.5625 L 35.375 -1.03125 C 33.914062 -0.4375 31.988281 0.0507812 29.59375 0.4375 C 27.195312 0.832031 24.835938 1.03125 22.515625 1.03125 Z M 32.015625 -18.546875 C 31.929688 -21.640625 30.914062 -24.039062 28.96875 -25.75 C 27.03125 -27.46875 24.285156 -28.328125 20.734375 -28.328125 C 17.265625 -28.328125 14.570312 -27.4375 12.65625 -25.65625 C 10.738281 -23.875 9.734375 -21.503906 9.640625 -18.546875 Z M 32.015625 -18.546875 "/></g></g></g><g fill="#2b2b2b" fill-opacity="1"><g transform="translate(391.267612, 75.693049)"><g><path d="M 4.453125 -32.84375 L 11.15625 -32.84375 L 11.15625 -28.125 C 12.707031 -30.082031 14.609375 -31.53125 16.859375 -32.46875 C 19.117188 -33.40625 21.484375 -33.875 23.953125 -33.875 C 28.328125 -33.875 31.585938 -32.707031 33.734375 -30.375 C 35.878906 -28.050781 36.953125 -24.925781 36.953125 -21 L 36.953125 0 L 30.03125 0 L 30.03125 -20.328125 C 30.03125 -25.660156 27.476562 -28.328125 22.375 -28.328125 C 20.1875 -28.328125 18.144531 -27.8125 16.25 -26.78125 C 14.351562 -25.757812 12.722656 -24.195312 11.359375 -22.09375 L 11.359375 0 L 4.453125 0 Z M 4.453125 -32.84375 "/></g></g></g><g fill="#2b2b2b" fill-opacity="1"><g transform="translate(431.292318, 75.693049)"><g><path d="M 22.515625 1.03125 C 16.441406 1.03125 11.679688 -0.484375 8.234375 -3.515625 C 4.796875 -6.554688 3.078125 -10.835938 3.078125 -16.359375 C 3.078125 -21.734375 4.613281 -25.992188 7.6875 -29.140625 C 10.769531 -32.296875 15.164062 -33.875 20.875 -33.875 C 24.65625 -33.875 27.867188 -33.15625 30.515625 -31.71875 C 33.160156 -30.28125 35.15625 -28.296875 36.5 -25.765625 C 37.84375 -23.234375 38.515625 -20.347656 38.515625 -17.109375 L 38.515625 -13.6875 L 9.640625 -13.6875 C 9.867188 -10.582031 11.179688 -8.265625 13.578125 -6.734375 C 15.972656 -5.210938 19.222656 -4.453125 23.328125 -4.453125 C 25.429688 -4.453125 27.550781 -4.644531 29.6875 -5.03125 C 31.832031 -5.414062 33.726562 -5.925781 35.375 -6.5625 L 35.375 -1.03125 C 33.914062 -0.4375 31.988281 0.0507812 29.59375 0.4375 C 27.195312 0.832031 24.835938 1.03125 22.515625 1.03125 Z M 32.015625 -18.546875 C 31.929688 -21.640625 30.914062 -24.039062 28.96875 -25.75 C 27.03125 -27.46875 24.285156 -28.328125 20.734375 -28.328125 C 17.265625 -28.328125 14.570312 -27.4375 12.65625 -25.65625 C 10.738281 -23.875 9.734375 -21.503906 9.640625 -18.546875 Z M 32.015625 -18.546875 "/></g></g></g><g fill="#2b2b2b" fill-opacity="1"><g transform="translate(471.864344, 75.693049)"><g><path d="M 4.453125 -32.84375 L 11.15625 -32.84375 L 11.15625 -26.953125 C 12.519531 -28.960938 14.441406 -30.445312 16.921875 -31.40625 C 19.410156 -32.363281 22.300781 -32.84375 25.59375 -32.84375 L 25.59375 -27.4375 C 22.082031 -27.4375 19.070312 -26.863281 16.5625 -25.71875 C 14.050781 -24.582031 12.316406 -22.785156 11.359375 -20.328125 L 11.359375 0 L 4.453125 0 Z M 4.453125 -32.84375 "/></g></g></g><g fill="#2b2b2b" fill-opacity="1"><g transform="translate(498.136919, 75.693049)"><g><path d="M 16.21875 1.03125 C 12.25 1.03125 9.066406 0.015625 6.671875 -2.015625 C 4.273438 -4.046875 3.078125 -6.796875 3.078125 -10.265625 C 3.078125 -13.910156 4.226562 -16.722656 6.53125 -18.703125 C 8.832031 -20.691406 12.109375 -21.6875 16.359375 -21.6875 C 20.867188 -21.6875 24.695312 -20.773438 27.84375 -18.953125 L 27.84375 -20.65625 C 27.84375 -23.257812 27.054688 -25.1875 25.484375 -26.4375 C 23.910156 -27.695312 21.4375 -28.328125 18.0625 -28.328125 C 16.050781 -28.328125 14.097656 -28.128906 12.203125 -27.734375 C 10.316406 -27.347656 8.617188 -26.816406 7.109375 -26.140625 L 7.109375 -31.75 C 8.484375 -32.382812 10.265625 -32.894531 12.453125 -33.28125 C 14.640625 -33.675781 16.757812 -33.875 18.8125 -33.875 C 24.238281 -33.875 28.265625 -32.675781 30.890625 -30.28125 C 33.515625 -27.882812 34.828125 -24.566406 34.828125 -20.328125 L 34.828125 0 L 28.328125 0 L 28.328125 -3.6875 C 26.910156 -2.144531 25.234375 -0.972656 23.296875 -0.171875 C 21.359375 0.628906 19 1.03125 16.21875 1.03125 Z M 17.921875 -4.234375 C 20.109375 -4.234375 22.09375 -4.664062 23.875 -5.53125 C 25.65625 -6.40625 26.976562 -7.617188 27.84375 -9.171875 L 27.84375 -13.609375 C 24.882812 -15.523438 21.578125 -16.484375 17.921875 -16.484375 C 15.273438 -16.484375 13.300781 -15.96875 12 -14.9375 C 10.707031 -13.914062 10.0625 -12.359375 10.0625 -10.265625 C 10.0625 -6.242188 12.679688 -4.234375 17.921875 -4.234375 Z M 17.921875 -4.234375 "/></g></g></g><g fill="#2b2b2b" fill-opacity="1"><g transform="translate(536.040629, 75.693049)"><g><path d="M 4.453125 -50.5625 L 11.359375 -50.5625 L 11.359375 0 L 4.453125 0 Z M 4.453125 -50.5625 "/></g></g></g><g fill="#2b2b2b" fill-opacity="1"><g transform="translate(550.81891, 75.693049)"><g><path d="M 22.515625 1.03125 C 16.441406 1.03125 11.679688 -0.484375 8.234375 -3.515625 C 4.796875 -6.554688 3.078125 -10.835938 3.078125 -16.359375 C 3.078125 -21.734375 4.613281 -25.992188 7.6875 -29.140625 C 10.769531 -32.296875 15.164062 -33.875 20.875 -33.875 C 24.65625 -33.875 27.867188 -33.15625 30.515625 -31.71875 C 33.160156 -30.28125 35.15625 -28.296875 36.5 -25.765625 C 37.84375 -23.234375 38.515625 -20.347656 38.515625 -17.109375 L 38.515625 -13.6875 L 9.640625 -13.6875 C 9.867188 -10.582031 11.179688 -8.265625 13.578125 -6.734375 C 15.972656 -5.210938 19.222656 -4.453125 23.328125 -4.453125 C 25.429688 -4.453125 27.550781 -4.644531 29.6875 -5.03125 C 31.832031 -5.414062 33.726562 -5.925781 35.375 -6.5625 L 35.375 -1.03125 C 33.914062 -0.4375 31.988281 0.0507812 29.59375 0.4375 C 27.195312 0.832031 24.835938 1.03125 22.515625 1.03125 Z M 32.015625 -18.546875 C 31.929688 -21.640625 30.914062 -24.039062 28.96875 -25.75 C 27.03125 -27.46875 24.285156 -28.328125 20.734375 -28.328125 C 17.265625 -28.328125 14.570312 -27.4375 12.65625 -25.65625 C 10.738281 -23.875 9.734375 -21.503906 9.640625 -18.546875 Z M 32.015625 -18.546875 "/></g></g></g><g fill="#2b2b2b" fill-opacity="1"><g transform="translate(591.390935, 75.693049)"><g><path d="M 16.5625 1.03125 C 14.28125 1.03125 11.859375 0.742188 9.296875 0.171875 C 6.742188 -0.398438 4.738281 -1.164062 3.28125 -2.125 L 3.28125 -8 C 5.0625 -6.957031 7.113281 -6.101562 9.4375 -5.4375 C 11.769531 -4.78125 14.03125 -4.453125 16.21875 -4.453125 C 18.675781 -4.453125 20.472656 -4.742188 21.609375 -5.328125 C 22.753906 -5.921875 23.328125 -6.878906 23.328125 -8.203125 C 23.328125 -9.210938 23.066406 -10.023438 22.546875 -10.640625 C 22.023438 -11.253906 21.132812 -11.8125 19.875 -12.3125 C 18.625 -12.8125 16.742188 -13.40625 14.234375 -14.09375 C 11.535156 -14.875 9.398438 -15.660156 7.828125 -16.453125 C 6.253906 -17.253906 5.066406 -18.269531 4.265625 -19.5 C 3.472656 -20.726562 3.078125 -22.328125 3.078125 -24.296875 C 3.078125 -27.441406 4.316406 -29.820312 6.796875 -31.4375 C 9.285156 -33.0625 12.628906 -33.875 16.828125 -33.875 C 19.015625 -33.875 21.15625 -33.664062 23.25 -33.25 C 25.351562 -32.84375 27.046875 -32.273438 28.328125 -31.546875 L 28.328125 -25.796875 C 27.003906 -26.566406 25.375 -27.179688 23.4375 -27.640625 C 21.5 -28.097656 19.523438 -28.328125 17.515625 -28.328125 C 15.097656 -28.328125 13.25 -28.03125 11.96875 -27.4375 C 10.695312 -26.84375 10.0625 -25.796875 10.0625 -24.296875 C 10.0625 -23.335938 10.332031 -22.5625 10.875 -21.96875 C 11.425781 -21.375 12.304688 -20.859375 13.515625 -20.421875 C 14.722656 -19.992188 16.648438 -19.4375 19.296875 -18.75 C 23.441406 -17.601562 26.320312 -16.253906 27.9375 -14.703125 C 29.5625 -13.160156 30.375 -11.019531 30.375 -8.28125 C 30.375 -5.445312 29.210938 -3.1875 26.890625 -1.5 C 24.566406 0.1875 21.125 1.03125 16.5625 1.03125 Z M 16.5625 1.03125 "/></g></g></g></g></g></svg>